<svg xmlns="http://www.w3.org/2000/svg" xmlns:xlink="http://www.w3.org/1999/xlink" width="500" zoomAndPan="magnify" viewBox="0 0 375 374.999991" height="500" preserveAspectRatio="xMidYMid meet" version="1.0"><defs><clipPath id="4596e1bb7d"><path d="M 67 52 L 312 52 L 312 338 L 67 338 Z M 67 52 " clip-rule="nonzero"/></clipPath><clipPath id="f17b09e443"><path d="M 114.679688 17.074219 L 342.886719 86.382812 L 260.503906 357.648438 L 32.292969 288.339844 Z M 114.679688 17.074219 " clip-rule="nonzero"/></clipPath><clipPath id="24a25d8c96"><path d="M 114.679688 17.074219 L 342.886719 86.382812 L 260.503906 357.648438 L 32.292969 288.339844 Z M 114.679688 17.074219 " clip-rule="nonzero"/></clipPath></defs><rect x="-37.5" width="450" fill="#ffffff" y="-37.499999" height="449.999989" fill-opacity="1"/><rect x="-37.5" width="450" fill="#ffffff" y="-37.499999" height="449.999989" fill-opacity="1"/><rect x="-37.5" width="450" fill="#106c92" y="-37.499999" height="449.999989" fill-opacity="1"/><g clip-path="url(#4596e1bb7d)"><g clip-path="url(#f17b09e443)"><g clip-path="url(#24a25d8c96)"><path fill="#ff8e2b" d="M 123.183594 167.800781 C 108.757812 215.304688 135.730469 265.695312 183.304688 280.144531 L 168.273438 329.632812 C 164.9375 328.621094 161.644531 327.484375 158.394531 326.230469 C 155.140625 324.972656 151.941406 323.601562 148.789062 322.109375 C 145.636719 320.621094 142.546875 319.015625 139.511719 317.296875 C 136.480469 315.578125 133.515625 313.753906 130.617188 311.816406 C 127.71875 309.878906 124.894531 307.839844 122.148438 305.695312 C 119.398438 303.554688 116.734375 301.3125 114.152344 298.972656 C 111.570312 296.632812 109.078125 294.199219 106.671875 291.679688 C 104.269531 289.15625 101.960938 286.546875 99.75 283.855469 C 97.539062 281.164062 95.429688 278.390625 93.421875 275.542969 C 91.414062 272.695312 89.515625 269.78125 87.722656 266.792969 C 85.933594 263.804688 84.253906 260.757812 82.683594 257.644531 C 81.117188 254.535156 79.667969 251.371094 78.332031 248.15625 C 77 244.9375 75.785156 241.675781 74.691406 238.371094 C 73.597656 235.0625 72.625 231.722656 71.78125 228.34375 C 70.933594 224.96875 70.210938 221.5625 69.613281 218.132812 C 69.019531 214.703125 68.550781 211.257812 68.207031 207.792969 C 67.867188 204.328125 67.652344 200.855469 67.566406 197.375 C 67.480469 193.894531 67.523438 190.417969 67.691406 186.941406 C 67.863281 183.464844 68.160156 179.996094 68.589844 176.542969 C 69.015625 173.089844 69.566406 169.65625 70.246094 166.242188 C 70.925781 162.828125 71.730469 159.445312 72.660156 156.089844 C 73.589844 152.734375 74.640625 149.417969 75.816406 146.144531 C 76.988281 142.867188 78.28125 139.636719 79.691406 136.457031 C 81.105469 133.273438 82.632812 130.148438 84.273438 127.082031 C 85.917969 124.011719 87.671875 121.007812 89.535156 118.070312 C 91.398438 115.128906 93.371094 112.261719 95.445312 109.46875 C 97.523438 106.671875 99.699219 103.957031 101.972656 101.324219 C 104.25 98.691406 106.621094 96.144531 109.085938 93.683594 C 111.550781 91.222656 114.101562 88.859375 116.738281 86.585938 C 119.378906 84.3125 122.097656 82.144531 124.898438 80.070312 C 127.695312 78 130.566406 76.035156 133.511719 74.171875 C 136.457031 72.3125 139.464844 70.5625 142.539062 68.925781 C 145.914062 67.125 149.355469 65.46875 152.867188 63.949219 C 156.378906 62.425781 159.945312 61.050781 163.566406 59.820312 C 167.1875 58.585938 170.851562 57.503906 174.5625 56.566406 C 178.273438 55.632812 182.011719 54.847656 185.785156 54.210938 C 189.5625 53.578125 193.355469 53.097656 197.167969 52.769531 C 200.980469 52.441406 204.800781 52.269531 208.625 52.25 C 212.453125 52.230469 216.273438 52.367188 220.089844 52.65625 C 223.90625 52.945312 227.707031 53.386719 231.484375 53.984375 C 235.265625 54.578125 239.015625 55.328125 242.738281 56.226562 C 246.457031 57.125 250.136719 58.171875 253.773438 59.367188 C 257.410156 60.5625 260.992188 61.902344 264.519531 63.390625 C 268.046875 64.875 271.507812 66.5 274.902344 68.261719 C 278.300781 70.027344 281.621094 71.925781 284.863281 73.957031 C 288.105469 75.988281 291.261719 78.148438 294.332031 80.4375 C 297.398438 82.722656 300.371094 85.128906 303.242188 87.65625 C 306.117188 90.183594 308.882812 92.820312 311.546875 95.570312 L 274.28125 131.441406 C 268.945312 125.933594 263.007812 121.183594 256.457031 117.1875 C 249.910156 113.191406 242.96875 110.082031 235.628906 107.855469 C 188.054688 93.40625 137.613281 120.300781 123.183594 167.800781 Z M 253.359375 281.628906 C 252.457031 281.355469 251.542969 281.125 250.621094 280.941406 C 249.695312 280.757812 248.765625 280.617188 247.828125 280.523438 C 246.890625 280.433594 245.949219 280.386719 245.007812 280.386719 C 244.0625 280.382812 243.125 280.429688 242.1875 280.519531 C 241.25 280.613281 240.316406 280.75 239.394531 280.933594 C 238.46875 281.117188 237.554688 281.34375 236.652344 281.617188 C 235.75 281.886719 234.867188 282.203125 233.996094 282.5625 C 233.125 282.921875 232.273438 283.324219 231.441406 283.769531 C 230.609375 284.210938 229.804688 284.695312 229.019531 285.214844 C 228.238281 285.738281 227.480469 286.296875 226.753906 286.894531 C 226.023438 287.492188 225.328125 288.121094 224.660156 288.789062 C 223.992188 289.453125 223.363281 290.148438 222.765625 290.875 C 222.167969 291.601562 221.605469 292.355469 221.082031 293.140625 C 220.558594 293.921875 220.074219 294.726562 219.628906 295.558594 C 219.1875 296.386719 218.785156 297.238281 218.421875 298.105469 C 218.0625 298.976562 217.746094 299.859375 217.472656 300.761719 C 217.199219 301.660156 216.96875 302.574219 216.785156 303.496094 C 216.601562 304.417969 216.464844 305.347656 216.371094 306.285156 C 216.28125 307.222656 216.234375 308.160156 216.234375 309.101562 C 216.234375 310.042969 216.28125 310.984375 216.371094 311.917969 C 216.464844 312.855469 216.601562 313.785156 216.789062 314.710938 C 216.972656 315.632812 217.199219 316.546875 217.472656 317.445312 C 217.746094 318.347656 218.066406 319.230469 218.425781 320.101562 C 218.785156 320.972656 219.1875 321.820312 219.632812 322.652344 C 220.078125 323.484375 220.5625 324.289062 221.085938 325.074219 C 221.609375 325.855469 222.167969 326.609375 222.765625 327.339844 C 223.367188 328.066406 223.996094 328.765625 224.664062 329.429688 C 225.332031 330.097656 226.027344 330.726562 226.757812 331.324219 C 227.484375 331.921875 228.242188 332.484375 229.023438 333.007812 C 229.808594 333.53125 230.617188 334.015625 231.445312 334.460938 C 232.277344 334.902344 233.128906 335.304688 234 335.667969 C 234.871094 336.027344 235.757812 336.34375 236.660156 336.621094 C 237.5625 336.894531 238.472656 337.121094 239.398438 337.308594 C 240.324219 337.492188 241.253906 337.628906 242.191406 337.722656 C 243.128906 337.816406 244.070312 337.863281 245.011719 337.863281 C 245.953125 337.863281 246.894531 337.820312 247.832031 337.726562 C 248.769531 337.636719 249.703125 337.5 250.625 337.316406 C 251.550781 337.132812 252.464844 336.90625 253.363281 336.632812 C 254.265625 336.359375 255.152344 336.042969 256.023438 335.683594 C 256.894531 335.324219 257.746094 334.921875 258.574219 334.480469 C 259.40625 334.035156 260.214844 333.554688 261 333.03125 C 261.78125 332.507812 262.539062 331.949219 263.265625 331.351562 C 263.996094 330.757812 264.691406 330.125 265.359375 329.460938 C 266.023438 328.796875 266.65625 328.101562 267.253906 327.371094 C 267.851562 326.644531 268.414062 325.890625 268.9375 325.109375 C 269.460938 324.328125 269.945312 323.519531 270.386719 322.691406 C 270.832031 321.859375 271.234375 321.011719 271.59375 320.140625 C 271.957031 319.273438 272.273438 318.386719 272.546875 317.488281 C 272.820312 316.585938 273.046875 315.675781 273.230469 314.75 C 273.414062 313.828125 273.554688 312.898438 273.644531 311.960938 C 273.738281 311.027344 273.785156 310.085938 273.785156 309.144531 C 273.785156 308.203125 273.738281 307.265625 273.644531 306.328125 C 273.554688 305.390625 273.414062 304.460938 273.230469 303.539062 C 273.046875 302.613281 272.820312 301.703125 272.542969 300.800781 C 272.269531 299.902344 271.953125 299.015625 271.59375 298.144531 C 271.234375 297.277344 270.828125 296.425781 270.386719 295.59375 C 269.941406 294.765625 269.457031 293.957031 268.933594 293.175781 C 268.410156 292.390625 267.847656 291.636719 267.25 290.910156 C 266.652344 290.179688 266.019531 289.484375 265.355469 288.816406 C 264.6875 288.152344 263.992188 287.519531 263.261719 286.921875 C 262.535156 286.324219 261.777344 285.765625 260.992188 285.238281 C 260.210938 284.714844 259.402344 284.234375 258.570312 283.789062 C 257.742188 283.34375 256.890625 282.941406 256.019531 282.582031 C 255.148438 282.21875 254.261719 281.902344 253.359375 281.628906 Z M 253.359375 281.628906 " fill-opacity="1" fill-rule="nonzero"/></g></g></g></svg>