<svg xmlns="http://www.w3.org/2000/svg" xmlns:xlink="http://www.w3.org/1999/xlink" width="500" zoomAndPan="magnify" viewBox="0 0 375 374.999991" height="500" preserveAspectRatio="xMidYMid meet" version="1.0"><defs><g/><clipPath id="689725faab"><path d="M 62 125 L 175 125 L 175 257 L 62 257 Z M 62 125 " clip-rule="nonzero"/></clipPath><clipPath id="fa24c0214a"><path d="M 83.992188 109.238281 L 188.765625 141.058594 L 150.84375 265.925781 L 46.070312 234.105469 Z M 83.992188 109.238281 " clip-rule="nonzero"/></clipPath><clipPath id="85598d79b0"><path d="M 83.992188 109.238281 L 188.765625 141.058594 L 150.84375 265.925781 L 46.070312 234.105469 Z M 83.992188 109.238281 " clip-rule="nonzero"/></clipPath></defs><rect x="-37.5" width="450" fill="#ffffff" y="-37.499999" height="449.999989" fill-opacity="1"/><rect x="-37.5" width="450" fill="#ffffff" y="-37.499999" height="449.999989" fill-opacity="1"/><rect x="-37.5" width="450" fill="#106c92" y="-37.499999" height="449.999989" fill-opacity="1"/><g fill="#ffffff" fill-opacity="1"><g transform="translate(107.742302, 203.552799)"><g><path d="M 16.625 0.375 C 20.78125 0.375 24.65625 -1.3125 27.4375 -4.09375 C 30.21875 -6.875 31.875 -10.71875 31.875 -14.875 C 31.875 -19.03125 30.21875 -22.84375 27.4375 -25.6875 C 24.65625 -28.46875 20.78125 -30.15625 16.625 -30.15625 C 12.5 -30.15625 8.71875 -28.53125 5.875 -25.6875 C 3.03125 -22.84375 1.375 -19 1.375 -14.875 C 1.375 -10.75 3.03125 -6.875 5.875 -4.09375 C 8.71875 -1.25 12.5 0.375 16.625 0.375 Z M 16.625 -5.15625 C 13.96875 -5.15625 11.53125 -6.1875 9.75 -8.03125 C 7.96875 -9.8125 6.90625 -12.25 6.90625 -14.875 C 6.90625 -17.5 7.96875 -19.9375 9.75 -21.71875 C 11.53125 -23.5 13.96875 -24.5625 16.625 -24.5625 C 19.34375 -24.5625 21.75 -23.5 23.53125 -21.71875 C 25.3125 -19.9375 26.34375 -17.5 26.34375 -14.875 C 26.34375 -12.25 25.3125 -9.8125 23.53125 -8.03125 C 21.75 -6.1875 19.34375 -5.15625 16.625 -5.15625 Z M 16.625 -5.15625 "/></g></g></g><g fill="#ffffff" fill-opacity="1"><g transform="translate(138.430273, 203.552799)"><g><path d="M 5 0 C 6.53125 0 7.6875 -1.125 7.6875 -2.71875 L 7.6875 -15.4375 C 7.6875 -17.9375 8.59375 -20.28125 10.21875 -21.9375 C 11.84375 -23.65625 14.03125 -24.59375 16.53125 -24.59375 C 19 -24.59375 21.25 -23.59375 22.90625 -21.875 C 24.53125 -20.21875 25.46875 -17.875 25.5 -15.375 L 25.5 -2.71875 C 25.5 -1.125 26.75 0 28.28125 0 C 29.8125 0 31 -1.125 31 -2.71875 L 31 -15.4375 C 31 -19.4375 29.46875 -23.125 26.84375 -25.84375 C 24.125 -28.5625 20.53125 -30.15625 16.53125 -30.15625 C 12.5625 -30.15625 8.96875 -28.5625 6.3125 -25.84375 C 3.6875 -23.125 2.15625 -19.4375 2.15625 -15.4375 L 2.15625 -2.71875 C 2.15625 -1.9375 2.4375 -1.3125 3.03125 -0.78125 C 3.5625 -0.25 4.21875 0 5 0 Z M 5 0 "/></g></g></g><g fill="#ffffff" fill-opacity="1"><g transform="translate(169.868197, 203.552799)"><g><path d="M 5 0 C 6.53125 0 7.6875 -1.125 7.6875 -2.71875 L 7.6875 -15.4375 C 7.6875 -17.9375 8.59375 -20.28125 10.21875 -21.9375 C 11.84375 -23.65625 14.03125 -24.59375 16.53125 -24.59375 C 19 -24.59375 21.25 -23.59375 22.90625 -21.875 C 24.53125 -20.21875 25.46875 -17.875 25.5 -15.375 L 25.5 -2.71875 C 25.5 -1.125 26.75 0 28.28125 0 C 29.8125 0 31 -1.125 31 -2.71875 L 31 -15.4375 C 31 -19.4375 29.46875 -23.125 26.84375 -25.84375 C 24.125 -28.5625 20.53125 -30.15625 16.53125 -30.15625 C 12.5625 -30.15625 8.96875 -28.5625 6.3125 -25.84375 C 3.6875 -23.125 2.15625 -19.4375 2.15625 -15.4375 L 2.15625 -2.71875 C 2.15625 -1.9375 2.4375 -1.3125 3.03125 -0.78125 C 3.5625 -0.25 4.21875 0 5 0 Z M 5 0 "/></g></g></g><g fill="#ffffff" fill-opacity="1"><g transform="translate(201.306122, 203.552799)"><g><path d="M 16.6875 0.375 C 19.15625 0.375 21.46875 0 23.125 -0.71875 C 24.96875 -1.5 25.875 -2.5 25.875 -3.78125 C 25.875 -4.53125 25.5625 -5.28125 25.0625 -5.8125 C 24.5 -6.375 23.875 -6.65625 23.15625 -6.65625 C 22.625 -6.65625 22.09375 -6.5 21.5 -6.15625 C 20.03125 -5.28125 18.78125 -4.9375 16.6875 -4.9375 C 14.46875 -4.9375 12.40625 -5.6875 10.75 -7.0625 C 9.125 -8.4375 7.96875 -10.25 7.5 -12.375 L 29.3125 -12.375 C 30.90625 -12.375 32 -13.5 32 -15 C 31.96875 -19.09375 30.25 -22.9375 27.46875 -25.71875 C 24.625 -28.5 20.78125 -30.15625 16.6875 -30.15625 C 12.5625 -30.15625 8.65625 -28.46875 5.875 -25.6875 C 3.03125 -22.90625 1.375 -19.03125 1.375 -14.875 C 1.375 -10.75 3.03125 -6.875 5.875 -4.09375 C 8.65625 -1.3125 12.5625 0.375 16.6875 0.375 Z M 7.34375 -17 C 7.71875 -19.15625 8.84375 -21.1875 10.5 -22.59375 C 12.15625 -24.0625 14.375 -24.875 16.78125 -24.875 C 19.15625 -24.875 21.375 -24.03125 23.09375 -22.625 C 24.8125 -21.21875 25.96875 -19.21875 26.34375 -17 Z M 7.34375 -17 "/></g></g></g><g fill="#ffffff" fill-opacity="1"><g transform="translate(232.119086, 203.552799)"><g><path d="M 16.71875 0.34375 C 20.71875 0.34375 24.5 -1.125 27.09375 -3.71875 C 27.71875 -4.34375 28.0625 -5.21875 28.0625 -6 C 28.0625 -6.75 27.75 -7.40625 27.125 -8 C 26.625 -8.46875 25.875 -8.71875 25.34375 -8.71875 C 24.90625 -8.71875 24.46875 -8.59375 24 -8.34375 L 21.8125 -6.8125 C 20.15625 -5.65625 18.5 -5.25 16.46875 -5.25 C 13.8125 -5.25 11.46875 -6.34375 9.71875 -8.21875 C 8 -9.96875 7.03125 -12.40625 7.03125 -14.90625 C 7.03125 -17.375 8.03125 -19.75 9.6875 -21.53125 C 11.34375 -23.3125 13.6875 -24.4375 16.21875 -24.53125 C 18.34375 -24.53125 20.03125 -24.125 21.8125 -22.96875 L 24 -21.40625 C 24.40625 -21.1875 24.84375 -21.0625 25.3125 -21.0625 C 25.84375 -21.0625 26.59375 -21.3125 27.125 -21.78125 C 27.78125 -22.3125 28.09375 -23 28.09375 -23.78125 C 28.09375 -24.5625 27.75 -25.34375 27.09375 -26.0625 C 24.46875 -28.6875 20.71875 -30.15625 16.71875 -30.15625 C 12.5 -30.15625 8.625 -28.5 5.84375 -25.65625 C 3 -22.8125 1.375 -18.9375 1.375 -14.71875 C 1.375 -10.59375 3.03125 -6.8125 5.875 -4.03125 C 8.71875 -1.28125 12.5625 0.34375 16.71875 0.34375 Z M 16.71875 0.34375 "/></g></g></g><g fill="#ffffff" fill-opacity="1"><g transform="translate(259.057286, 203.552799)"><g><path d="M 18.09375 0.375 C 22.03125 0.375 25.3125 -0.875 27.9375 -3.375 C 28.5625 -4 28.9375 -4.90625 28.9375 -5.75 C 28.9375 -6.46875 28.6875 -7.09375 28.1875 -7.59375 C 27.65625 -8.0625 27.09375 -8.3125 26.4375 -8.3125 C 25.71875 -8.3125 25 -8 24.34375 -7.375 C 22.71875 -5.875 20.625 -5.125 18.09375 -5.125 C 15.4375 -5.125 13 -6.125 11.25 -7.875 C 9.46875 -9.625 8.4375 -12 8.4375 -14.625 L 8.4375 -24.8125 L 20.84375 -24.8125 C 22.4375 -24.8125 23.625 -25.96875 23.625 -27.46875 C 23.625 -29 22.375 -30.28125 20.84375 -30.28125 L 8.4375 -30.28125 L 8.4375 -36.40625 C 8.4375 -37.1875 8.15625 -37.84375 7.59375 -38.40625 C 7.0625 -38.90625 6.3125 -39.21875 5.5625 -39.21875 C 4.8125 -39.21875 4.15625 -38.9375 3.625 -38.40625 C 3.0625 -37.84375 2.78125 -37.1875 2.78125 -36.40625 L 2.78125 -14.6875 C 2.78125 -10.53125 4.4375 -6.75 7.28125 -3.96875 C 10.0625 -1.21875 13.875 0.375 18.09375 0.375 Z M 18.09375 0.375 "/></g></g></g><g fill="#f5f5f5" fill-opacity="1"><g transform="translate(180.151385, 231.949086)"><g><path d="M 3.472656 0.125 C 4.242188 0.125 4.867188 -0.472656 4.867188 -1.242188 L 4.867188 -5.640625 L 9.3125 -5.640625 C 11.371094 -5.640625 13.304688 -6.441406 14.703125 -7.804688 C 16.097656 -9.171875 16.917969 -11.058594 16.917969 -13.082031 C 16.917969 -15.15625 16.082031 -17.167969 14.703125 -18.535156 C 13.304688 -19.917969 11.386719 -20.71875 9.328125 -20.71875 L 3.472656 -20.71875 C 2.71875 -20.71875 2.089844 -20.105469 2.089844 -19.335938 L 2.089844 -1.242188 C 2.089844 -0.488281 2.703125 0.125 3.472656 0.125 Z M 4.867188 -8.402344 L 4.867188 -17.921875 L 9.375 -17.921875 C 10.679688 -17.921875 11.875 -17.355469 12.753906 -16.460938 C 13.585938 -15.582031 14.105469 -14.292969 14.105469 -13.082031 C 14.105469 -11.875 13.632812 -10.710938 12.769531 -9.847656 C 11.890625 -8.953125 10.695312 -8.402344 9.359375 -8.402344 Z M 4.867188 -8.402344 "/></g></g></g><g fill="#f5f5f5" fill-opacity="1"><g transform="translate(196.355839, 231.949086)"><g><path d="M 7.148438 0.015625 C 7.949219 0.015625 8.511719 -0.550781 8.511719 -1.351562 C 8.511719 -2.121094 7.949219 -2.71875 7.148438 -2.71875 L 7.050781 -2.71875 C 5.589844 -2.734375 4.695312 -3.628906 4.695312 -5.246094 L 4.695312 -19.195312 C 4.695312 -19.585938 4.554688 -19.917969 4.273438 -20.199219 C 3.988281 -20.464844 3.660156 -20.589844 3.265625 -20.589844 C 2.511719 -20.589844 1.917969 -19.996094 1.917969 -19.195312 L 1.917969 -5.246094 C 1.917969 -3.691406 2.464844 -2.386719 3.425781 -1.445312 C 4.367188 -0.503906 5.65625 0.015625 7.148438 0.015625 Z M 7.148438 0.015625 "/></g></g></g><g fill="#f5f5f5" fill-opacity="1"><g transform="translate(203.924581, 231.949086)"><g><path d="M 8.355469 0.1875 C 10.164062 0.1875 11.84375 -0.425781 13.179688 -1.539062 L 13.195312 -1.320312 C 13.195312 -0.503906 13.742188 0.109375 14.542969 0.109375 C 15.34375 0.109375 15.957031 -0.519531 15.957031 -1.320312 L 15.957031 -7.570312 C 15.910156 -9.644531 15.09375 -11.542969 13.710938 -12.941406 C 12.3125 -14.339844 10.429688 -15.15625 8.355469 -15.15625 C 6.28125 -15.15625 4.382812 -14.339844 2.984375 -12.910156 C 1.585938 -11.480469 0.753906 -9.566406 0.753906 -7.476562 C 0.753906 -5.386719 1.585938 -3.457031 2.984375 -2.058594 C 4.382812 -0.628906 6.28125 0.1875 8.355469 0.1875 Z M 8.355469 -2.589844 C 7.019531 -2.589844 5.8125 -3.109375 4.933594 -4.035156 C 4.050781 -4.933594 3.535156 -6.15625 3.535156 -7.476562 C 3.535156 -8.796875 4.050781 -10.019531 4.933594 -10.917969 C 5.8125 -11.8125 7.019531 -12.34375 8.355469 -12.34375 C 9.691406 -12.34375 10.917969 -11.8125 11.8125 -10.917969 C 12.691406 -10.019531 13.195312 -8.796875 13.195312 -7.476562 C 13.195312 -6.15625 12.691406 -4.933594 11.8125 -4.035156 C 10.917969 -3.109375 9.722656 -2.589844 8.355469 -2.589844 Z M 8.355469 -2.589844 "/></g></g></g><g fill="#f5f5f5" fill-opacity="1"><g transform="translate(220.050528, 231.949086)"><g><path d="M 9.09375 0.1875 C 11.074219 0.1875 12.722656 -0.441406 14.042969 -1.695312 C 14.355469 -2.011719 14.542969 -2.464844 14.542969 -2.890625 C 14.542969 -3.25 14.417969 -3.566406 14.167969 -3.816406 C 13.902344 -4.050781 13.617188 -4.179688 13.289062 -4.179688 C 12.925781 -4.179688 12.566406 -4.019531 12.234375 -3.707031 C 11.417969 -2.953125 10.367188 -2.574219 9.09375 -2.574219 C 7.757812 -2.574219 6.535156 -3.078125 5.65625 -3.957031 C 4.757812 -4.835938 4.242188 -6.03125 4.242188 -7.351562 L 4.242188 -12.472656 L 10.476562 -12.472656 C 11.277344 -12.472656 11.875 -13.050781 11.875 -13.804688 C 11.875 -14.574219 11.246094 -15.21875 10.476562 -15.21875 L 4.242188 -15.21875 L 4.242188 -18.296875 C 4.242188 -18.691406 4.097656 -19.019531 3.816406 -19.304688 C 3.550781 -19.554688 3.171875 -19.710938 2.796875 -19.710938 C 2.417969 -19.710938 2.089844 -19.570312 1.820312 -19.304688 C 1.539062 -19.019531 1.398438 -18.691406 1.398438 -18.296875 L 1.398438 -7.382812 C 1.398438 -5.292969 2.230469 -3.394531 3.660156 -1.996094 C 5.058594 -0.613281 6.972656 0.1875 9.09375 0.1875 Z M 9.09375 0.1875 "/></g></g></g><g fill="#f5f5f5" fill-opacity="1"><g transform="translate(233.664269, 231.949086)"><g><path d="M 1.726562 4.632812 C 3.09375 4.632812 4.335938 4.082031 5.261719 3.140625 C 6.1875 2.199219 6.722656 0.957031 6.722656 -0.410156 L 6.722656 -8.058594 L 8.605469 -8.058594 C 9 -8.058594 9.34375 -8.199219 9.613281 -8.464844 C 9.878906 -8.734375 10.019531 -9.0625 10.019531 -9.457031 C 10.019531 -9.832031 9.878906 -10.164062 9.613281 -10.429688 C 9.34375 -10.695312 9 -10.835938 8.605469 -10.835938 L 6.722656 -10.835938 L 6.722656 -15.753906 C 6.738281 -16.320312 7.003906 -16.902344 7.398438 -17.292969 C 7.773438 -17.6875 8.324219 -17.9375 8.9375 -17.9375 L 8.953125 -17.9375 C 9.722656 -17.9375 10.351562 -18.550781 10.351562 -19.304688 C 10.351562 -20.105469 9.738281 -20.71875 8.9375 -20.71875 C 7.570312 -20.71875 6.3125 -20.183594 5.417969 -19.257812 C 4.523438 -18.328125 3.957031 -17.074219 3.941406 -15.753906 L 3.941406 -10.835938 L 2.8125 -10.835938 C 2.417969 -10.835938 2.089844 -10.695312 1.820312 -10.429688 C 1.554688 -10.164062 1.414062 -9.832031 1.414062 -9.457031 C 1.414062 -9.0625 1.539062 -8.734375 1.804688 -8.464844 C 2.074219 -8.199219 2.417969 -8.058594 2.8125 -8.058594 L 3.941406 -8.058594 L 3.941406 -0.410156 C 3.941406 0.1875 3.738281 0.707031 3.328125 1.148438 C 2.890625 1.601562 2.371094 1.835938 1.773438 1.851562 L 1.726562 1.851562 C 1.351562 1.851562 1.019531 1.996094 0.753906 2.261719 C 0.488281 2.527344 0.34375 2.859375 0.34375 3.21875 C 0.34375 3.613281 0.488281 3.957031 0.753906 4.226562 C 1.019531 4.492188 1.351562 4.632812 1.726562 4.632812 Z M 1.726562 4.632812 "/></g></g></g><g fill="#f5f5f5" fill-opacity="1"><g transform="translate(243.415493, 231.949086)"><g><path d="M 8.355469 0.1875 C 10.445312 0.1875 12.394531 -0.660156 13.789062 -2.058594 C 15.1875 -3.457031 16.019531 -5.386719 16.019531 -7.476562 C 16.019531 -9.566406 15.1875 -11.480469 13.789062 -12.910156 C 12.394531 -14.308594 10.445312 -15.15625 8.355469 -15.15625 C 6.28125 -15.15625 4.382812 -14.339844 2.953125 -12.910156 C 1.523438 -11.480469 0.691406 -9.550781 0.691406 -7.476562 C 0.691406 -5.402344 1.523438 -3.457031 2.953125 -2.058594 C 4.382812 -0.628906 6.28125 0.1875 8.355469 0.1875 Z M 8.355469 -2.589844 C 7.019531 -2.589844 5.796875 -3.109375 4.902344 -4.035156 C 4.003906 -4.933594 3.472656 -6.15625 3.472656 -7.476562 C 3.472656 -8.796875 4.003906 -10.019531 4.902344 -10.917969 C 5.796875 -11.8125 7.019531 -12.34375 8.355469 -12.34375 C 9.722656 -12.34375 10.933594 -11.8125 11.828125 -10.917969 C 12.722656 -10.019531 13.242188 -8.796875 13.242188 -7.476562 C 13.242188 -6.15625 12.722656 -4.933594 11.828125 -4.035156 C 10.933594 -3.109375 9.722656 -2.589844 8.355469 -2.589844 Z M 8.355469 -2.589844 "/></g></g></g><g fill="#f5f5f5" fill-opacity="1"><g transform="translate(258.834884, 231.949086)"><g><path d="M 2.828125 0 C 3.582031 0 4.164062 -0.582031 4.164062 -1.382812 L 4.164062 -7.132812 C 4.164062 -8.558594 4.726562 -9.863281 5.71875 -10.851562 C 6.675781 -11.8125 7.980469 -12.394531 9.375 -12.394531 L 9.457031 -12.394531 C 10.273438 -12.394531 10.902344 -12.972656 10.902344 -13.773438 C 10.902344 -14.589844 10.382812 -15.15625 9.457031 -15.15625 L 9.375 -15.15625 C 7.226562 -15.15625 5.230469 -14.292969 3.738281 -12.800781 C 2.277344 -11.308594 1.398438 -9.28125 1.398438 -7.132812 L 1.398438 -1.382812 C 1.398438 -0.988281 1.539062 -0.660156 1.835938 -0.394531 C 2.105469 -0.125 2.433594 0 2.828125 0 Z M 2.828125 0 "/></g></g></g><g fill="#f5f5f5" fill-opacity="1"><g transform="translate(268.790225, 231.949086)"><g><path d="M 2.875 0 C 3.628906 0 4.242188 -0.582031 4.242188 -1.382812 L 4.289062 -10.414062 C 4.289062 -10.476562 4.273438 -10.554688 4.257812 -10.664062 C 4.335938 -11.246094 4.632812 -11.78125 5.074219 -12.15625 C 5.527344 -12.566406 6.0625 -12.769531 6.675781 -12.769531 C 7.335938 -12.769531 7.917969 -12.519531 8.402344 -12.03125 C 8.828125 -11.574219 9.078125 -10.949219 9.078125 -10.273438 L 9.078125 -1.414062 C 9.078125 -0.644531 9.691406 -0.015625 10.460938 -0.015625 C 10.835938 -0.015625 11.167969 -0.15625 11.433594 -0.425781 C 11.6875 -0.675781 11.84375 -1.035156 11.84375 -1.414062 L 11.84375 -10.351562 C 11.84375 -10.460938 11.84375 -10.523438 11.828125 -10.539062 C 11.875 -11.167969 12.125 -11.6875 12.582031 -12.109375 C 13.035156 -12.535156 13.570312 -12.753906 14.199219 -12.753906 C 14.828125 -12.753906 15.472656 -12.503906 15.925781 -12.0625 C 16.382812 -11.605469 16.664062 -11.011719 16.679688 -10.382812 L 16.679688 -1.382812 C 16.679688 -0.582031 17.292969 0 18.0625 0 C 18.832031 0 19.445312 -0.582031 19.445312 -1.382812 L 19.445312 -10.460938 C 19.445312 -11.828125 18.847656 -13.148438 17.890625 -14.105469 C 16.902344 -15.046875 15.582031 -15.613281 14.183594 -15.613281 C 12.722656 -15.613281 11.371094 -14.984375 10.414062 -13.964844 C 9.425781 -14.984375 8.089844 -15.613281 6.628906 -15.613281 C 5.230469 -15.613281 3.941406 -15.046875 3 -14.105469 C 2.042969 -13.148438 1.476562 -11.84375 1.476562 -10.460938 L 1.476562 -1.382812 C 1.476562 -0.582031 2.105469 0 2.875 0 Z M 2.875 0 "/></g></g></g><g clip-path="url(#689725faab)"><g clip-path="url(#fa24c0214a)"><g clip-path="url(#85598d79b0)"><path fill="#ff8e2b" d="M 87.847656 178.601562 C 81.207031 200.46875 93.578125 223.648438 115.417969 230.285156 L 108.5 253.0625 C 106.96875 252.597656 105.457031 252.078125 103.960938 251.5 C 102.46875 250.925781 101 250.292969 99.554688 249.609375 C 98.109375 248.925781 96.6875 248.1875 95.296875 247.398438 C 93.902344 246.609375 92.542969 245.769531 91.214844 244.878906 C 89.882812 243.988281 88.585938 243.050781 87.324219 242.0625 C 86.066406 241.078125 84.839844 240.046875 83.65625 238.972656 C 82.472656 237.894531 81.328125 236.777344 80.222656 235.617188 C 79.121094 234.457031 78.0625 233.257812 77.046875 232.019531 C 76.035156 230.78125 75.066406 229.507812 74.144531 228.199219 C 73.226562 226.886719 72.351562 225.546875 71.53125 224.171875 C 70.710938 222.796875 69.9375 221.394531 69.21875 219.964844 C 68.5 218.53125 67.835938 217.078125 67.226562 215.597656 C 66.613281 214.117188 66.058594 212.617188 65.554688 211.09375 C 65.054688 209.574219 64.609375 208.035156 64.222656 206.484375 C 63.835938 204.929688 63.503906 203.363281 63.230469 201.785156 C 62.960938 200.207031 62.746094 198.621094 62.589844 197.023438 C 62.433594 195.429688 62.335938 193.832031 62.296875 192.230469 C 62.257812 190.628906 62.28125 189.027344 62.359375 187.429688 C 62.4375 185.828125 62.578125 184.234375 62.773438 182.644531 C 62.972656 181.054688 63.226562 179.472656 63.539062 177.902344 C 63.851562 176.332031 64.222656 174.773438 64.652344 173.230469 C 65.078125 171.683594 65.5625 170.160156 66.101562 168.652344 C 66.644531 167.140625 67.238281 165.65625 67.886719 164.191406 C 68.539062 162.726562 69.238281 161.289062 69.996094 159.875 C 70.75 158.460938 71.554688 157.078125 72.414062 155.726562 C 73.269531 154.371094 74.175781 153.050781 75.128906 151.765625 C 76.085938 150.480469 77.085938 149.230469 78.132812 148.015625 C 79.175781 146.800781 80.265625 145.628906 81.398438 144.496094 C 82.53125 143.363281 83.703125 142.273438 84.917969 141.226562 C 86.128906 140.179688 87.378906 139.179688 88.664062 138.226562 C 89.949219 137.273438 91.269531 136.367188 92.621094 135.507812 C 93.976562 134.652344 95.359375 133.847656 96.769531 133.089844 C 98.320312 132.261719 99.902344 131.496094 101.515625 130.796875 C 103.125 130.097656 104.765625 129.460938 106.429688 128.894531 C 108.089844 128.324219 109.773438 127.824219 111.480469 127.394531 C 113.183594 126.960938 114.902344 126.597656 116.632812 126.304688 C 118.367188 126.011719 120.109375 125.789062 121.859375 125.636719 C 123.609375 125.484375 125.367188 125.40625 127.121094 125.394531 C 128.878906 125.386719 130.636719 125.445312 132.386719 125.578125 C 134.140625 125.710938 135.882812 125.910156 137.621094 126.183594 C 139.355469 126.457031 141.078125 126.800781 142.785156 127.214844 C 144.492188 127.625 146.183594 128.105469 147.851562 128.65625 C 149.519531 129.203125 151.164062 129.820312 152.785156 130.503906 C 154.402344 131.183594 155.992188 131.929688 157.550781 132.742188 C 159.113281 133.550781 160.636719 134.425781 162.125 135.359375 C 163.613281 136.292969 165.0625 137.285156 166.46875 138.335938 C 167.878906 139.390625 169.242188 140.496094 170.558594 141.65625 C 171.878906 142.820312 173.148438 144.03125 174.367188 145.296875 L 157.246094 161.816406 C 154.796875 159.285156 152.070312 157.101562 149.066406 155.265625 C 146.0625 153.429688 142.875 152 139.503906 150.976562 C 117.664062 144.34375 94.488281 156.734375 87.847656 178.601562 Z M 147.585938 230.941406 C 146.757812 230.691406 145.910156 230.523438 145.046875 230.4375 C 144.183594 230.351562 143.320312 230.351562 142.457031 230.4375 C 141.59375 230.523438 140.746094 230.691406 139.914062 230.941406 C 139.085938 231.195312 138.289062 231.527344 137.523438 231.933594 C 136.757812 232.34375 136.039062 232.824219 135.367188 233.375 C 134.695312 233.925781 134.085938 234.539062 133.535156 235.210938 C 132.984375 235.878906 132.503906 236.597656 132.09375 237.363281 C 131.683594 238.132812 131.351562 238.929688 131.101562 239.761719 C 130.847656 240.589844 130.679688 241.4375 130.59375 242.304688 C 130.507812 243.167969 130.507812 244.03125 130.59375 244.894531 C 130.675781 245.761719 130.84375 246.609375 131.097656 247.4375 C 131.347656 248.269531 131.675781 249.070312 132.085938 249.835938 C 132.496094 250.601562 132.972656 251.320312 133.523438 251.992188 C 134.074219 252.660156 134.683594 253.273438 135.355469 253.824219 C 136.023438 254.375 136.742188 254.855469 137.507812 255.265625 C 138.273438 255.671875 139.070312 256.003906 139.898438 256.257812 C 140.730469 256.507812 141.578125 256.675781 142.441406 256.761719 C 143.304688 256.847656 144.167969 256.847656 145.03125 256.761719 C 145.894531 256.675781 146.742188 256.507812 147.570312 256.257812 C 148.402344 256.003906 149.199219 255.675781 149.964844 255.265625 C 150.730469 254.855469 151.449219 254.375 152.121094 253.824219 C 152.789062 253.273438 153.402344 252.660156 153.953125 251.992188 C 154.503906 251.320312 154.984375 250.601562 155.394531 249.835938 C 155.800781 249.070312 156.132812 248.269531 156.386719 247.441406 C 156.636719 246.609375 156.808594 245.761719 156.894531 244.898438 C 156.976562 244.03125 156.980469 243.167969 156.894531 242.304688 C 156.808594 241.441406 156.640625 240.59375 156.390625 239.761719 C 156.140625 238.929688 155.808594 238.132812 155.402344 237.367188 C 154.992188 236.597656 154.511719 235.878906 153.964844 235.210938 C 153.414062 234.539062 152.804688 233.925781 152.132812 233.375 C 151.460938 232.824219 150.746094 232.34375 149.980469 231.933594 C 149.214844 231.527344 148.417969 231.195312 147.585938 230.941406 Z M 147.585938 230.941406 " fill-opacity="1" fill-rule="nonzero"/></g></g></g></svg>