<svg xmlns="http://www.w3.org/2000/svg" xmlns:xlink="http://www.w3.org/1999/xlink" width="500" zoomAndPan="magnify" viewBox="0 0 375 374.999991" height="500" preserveAspectRatio="xMidYMid meet" version="1.0"><defs><clipPath id="0d8f8fc013"><path d="M 113 104 L 264 104 L 264 280 L 113 280 Z M 113 104 " clip-rule="nonzero"/></clipPath><clipPath id="add1fb34cb"><path d="M 142.882812 83.085938 L 282.824219 125.585938 L 232.257812 292.078125 L 92.320312 249.578125 Z M 142.882812 83.085938 " clip-rule="nonzero"/></clipPath><clipPath id="594dcf4354"><path d="M 142.882812 83.085938 L 282.824219 125.585938 L 232.257812 292.078125 L 92.320312 249.578125 Z M 142.882812 83.085938 " clip-rule="nonzero"/></clipPath></defs><g clip-path="url(#0d8f8fc013)"><g clip-path="url(#add1fb34cb)"><g clip-path="url(#594dcf4354)"><path fill="#ff8e2b" d="M 148.078125 175.585938 C 139.222656 204.742188 155.753906 235.664062 184.929688 244.523438 L 175.703125 274.898438 C 173.65625 274.277344 171.636719 273.582031 169.644531 272.808594 C 167.648438 272.039062 165.6875 271.199219 163.753906 270.285156 C 161.824219 269.371094 159.925781 268.386719 158.066406 267.332031 C 156.207031 266.277344 154.390625 265.15625 152.613281 263.96875 C 150.835938 262.78125 149.105469 261.53125 147.421875 260.214844 C 145.734375 258.898438 144.101562 257.523438 142.519531 256.089844 C 140.933594 254.652344 139.40625 253.160156 137.933594 251.613281 C 136.457031 250.066406 135.042969 248.464844 133.6875 246.8125 C 132.332031 245.160156 131.039062 243.460938 129.808594 241.714844 C 128.578125 239.96875 127.414062 238.175781 126.316406 236.34375 C 125.21875 234.511719 124.1875 232.640625 123.226562 230.730469 C 122.265625 228.824219 121.375 226.882812 120.558594 224.90625 C 119.742188 222.933594 118.996094 220.933594 118.328125 218.902344 C 117.65625 216.875 117.0625 214.824219 116.542969 212.75 C 116.023438 210.679688 115.582031 208.589844 115.21875 206.484375 C 114.851562 204.378906 114.566406 202.265625 114.355469 200.136719 C 114.148438 198.011719 114.015625 195.878906 113.964844 193.746094 C 113.910156 191.609375 113.9375 189.472656 114.042969 187.339844 C 114.148438 185.207031 114.332031 183.082031 114.59375 180.960938 C 114.855469 178.839844 115.195312 176.730469 115.613281 174.636719 C 116.03125 172.542969 116.523438 170.464844 117.09375 168.40625 C 117.664062 166.347656 118.308594 164.3125 119.03125 162.300781 C 119.75 160.289062 120.542969 158.308594 121.410156 156.355469 C 122.277344 154.402344 123.214844 152.484375 124.222656 150.601562 C 125.230469 148.71875 126.304688 146.875 127.449219 145.070312 C 128.59375 143.265625 129.800781 141.507812 131.074219 139.789062 C 132.347656 138.074219 133.683594 136.410156 135.078125 134.792969 C 136.476562 133.175781 137.929688 131.613281 139.441406 130.101562 C 140.953125 128.59375 142.519531 127.140625 144.136719 125.746094 C 145.753906 124.351562 147.421875 123.015625 149.140625 121.746094 C 150.859375 120.472656 152.617188 119.265625 154.425781 118.125 C 156.230469 116.980469 158.078125 115.90625 159.960938 114.902344 C 162.03125 113.796875 164.144531 112.777344 166.296875 111.847656 C 168.449219 110.914062 170.636719 110.066406 172.855469 109.3125 C 175.078125 108.554688 177.328125 107.886719 179.601562 107.3125 C 181.875 106.738281 184.171875 106.253906 186.484375 105.867188 C 188.800781 105.476562 191.125 105.179688 193.464844 104.980469 C 195.800781 104.777344 198.144531 104.671875 200.492188 104.660156 C 202.839844 104.644531 205.183594 104.726562 207.523438 104.90625 C 209.863281 105.082031 212.191406 105.355469 214.511719 105.71875 C 216.828125 106.085938 219.128906 106.542969 221.410156 107.09375 C 223.691406 107.644531 225.949219 108.285156 228.175781 109.019531 C 230.40625 109.753906 232.601562 110.574219 234.765625 111.484375 C 236.929688 112.398438 239.050781 113.394531 241.132812 114.476562 C 243.21875 115.558594 245.253906 116.722656 247.242188 117.96875 C 249.230469 119.214844 251.164062 120.539062 253.046875 121.941406 C 254.925781 123.347656 256.75 124.824219 258.511719 126.371094 C 260.273438 127.921875 261.96875 129.542969 263.601562 131.230469 L 240.742188 153.25 C 237.472656 149.871094 233.828125 146.953125 229.816406 144.503906 C 225.800781 142.054688 221.542969 140.144531 217.042969 138.78125 C 187.871094 129.921875 156.933594 146.433594 148.078125 175.585938 Z M 227.890625 245.421875 C 227.335938 245.253906 226.777344 245.113281 226.210938 245.003906 C 225.644531 244.890625 225.070312 244.804688 224.496094 244.746094 C 223.921875 244.691406 223.34375 244.660156 222.765625 244.660156 C 222.191406 244.660156 221.613281 244.6875 221.039062 244.746094 C 220.460938 244.800781 219.890625 244.886719 219.324219 245 C 218.757812 245.109375 218.199219 245.25 217.644531 245.417969 C 217.089844 245.585938 216.546875 245.78125 216.015625 246 C 215.480469 246.222656 214.957031 246.46875 214.449219 246.738281 C 213.9375 247.011719 213.445312 247.308594 212.964844 247.628906 C 212.484375 247.949219 212.019531 248.292969 211.570312 248.660156 C 211.125 249.027344 210.699219 249.414062 210.289062 249.820312 C 209.878906 250.230469 209.492188 250.65625 209.125 251.101562 C 208.757812 251.550781 208.414062 252.011719 208.09375 252.492188 C 207.773438 252.972656 207.476562 253.46875 207.203125 253.976562 C 206.929688 254.484375 206.683594 255.007812 206.460938 255.542969 C 206.242188 256.074219 206.046875 256.617188 205.878906 257.171875 C 205.710938 257.722656 205.570312 258.28125 205.457031 258.847656 C 205.34375 259.414062 205.261719 259.988281 205.203125 260.5625 C 205.148438 261.136719 205.117188 261.710938 205.117188 262.289062 C 205.117188 262.867188 205.144531 263.445312 205.203125 264.019531 C 205.257812 264.59375 205.34375 265.164062 205.457031 265.730469 C 205.570312 266.296875 205.710938 266.859375 205.878906 267.410156 C 206.042969 267.964844 206.238281 268.507812 206.460938 269.039062 C 206.679688 269.574219 206.929688 270.097656 207.199219 270.605469 C 207.472656 271.113281 207.769531 271.609375 208.089844 272.089844 C 208.410156 272.570312 208.753906 273.035156 209.121094 273.480469 C 209.488281 273.929688 209.875 274.355469 210.285156 274.765625 C 210.691406 275.171875 211.121094 275.5625 211.566406 275.925781 C 212.015625 276.292969 212.476562 276.636719 212.957031 276.960938 C 213.4375 277.28125 213.933594 277.578125 214.445312 277.851562 C 214.953125 278.121094 215.476562 278.371094 216.007812 278.589844 C 216.542969 278.8125 217.085938 279.007812 217.640625 279.175781 C 218.191406 279.34375 218.753906 279.484375 219.320312 279.597656 C 219.886719 279.707031 220.457031 279.792969 221.03125 279.851562 C 221.605469 279.90625 222.183594 279.9375 222.761719 279.9375 C 223.339844 279.9375 223.917969 279.910156 224.492188 279.851562 C 225.066406 279.796875 225.636719 279.710938 226.203125 279.597656 C 226.769531 279.488281 227.332031 279.347656 227.882812 279.179688 C 228.4375 279.011719 228.980469 278.816406 229.515625 278.597656 C 230.050781 278.375 230.570312 278.128906 231.082031 277.859375 C 231.589844 277.585938 232.085938 277.289062 232.566406 276.96875 C 233.046875 276.648438 233.511719 276.304688 233.957031 275.9375 C 234.402344 275.574219 234.832031 275.183594 235.242188 274.777344 C 235.648438 274.367188 236.035156 273.941406 236.402344 273.496094 C 236.769531 273.046875 237.113281 272.585938 237.4375 272.105469 C 237.757812 271.625 238.054688 271.128906 238.324219 270.621094 C 238.597656 270.113281 238.84375 269.589844 239.066406 269.058594 C 239.289062 268.523438 239.484375 267.980469 239.652344 267.425781 C 239.816406 266.875 239.957031 266.316406 240.070312 265.75 C 240.183594 265.183594 240.269531 264.613281 240.324219 264.035156 C 240.382812 263.460938 240.410156 262.886719 240.410156 262.308594 C 240.410156 261.730469 240.382812 261.152344 240.328125 260.578125 C 240.269531 260.003906 240.183594 259.433594 240.074219 258.867188 C 239.960938 258.300781 239.820312 257.742188 239.652344 257.1875 C 239.484375 256.632812 239.289062 256.089844 239.070312 255.558594 C 238.847656 255.023438 238.601562 254.503906 238.328125 253.992188 C 238.054688 253.484375 237.757812 252.988281 237.4375 252.507812 C 237.117188 252.027344 236.773438 251.5625 236.40625 251.117188 C 236.039062 250.667969 235.652344 250.242188 235.246094 249.832031 C 234.835938 249.425781 234.410156 249.039062 233.960938 248.671875 C 233.515625 248.304688 233.050781 247.960938 232.570312 247.640625 C 232.089844 247.316406 231.59375 247.019531 231.085938 246.75 C 230.574219 246.476562 230.054688 246.230469 229.519531 246.007812 C 228.984375 245.785156 228.441406 245.589844 227.890625 245.421875 Z M 227.890625 245.421875 " fill-opacity="1" fill-rule="nonzero"/></g></g></g></svg>