<svg xmlns="http://www.w3.org/2000/svg" xmlns:xlink="http://www.w3.org/1999/xlink" width="500" zoomAndPan="magnify" viewBox="0 0 375 374.999991" height="500" preserveAspectRatio="xMidYMid meet" version="1.0"><defs><g/><clipPath id="55281fa22f"><path d="M 88 138.734375 L 297.9375 138.734375 L 297.9375 227.234375 L 88 227.234375 Z M 88 138.734375 " clip-rule="nonzero"/></clipPath></defs><g clip-path="url(#55281fa22f)"><path fill="#ff8e2b" d="M 132.546875 222.046875 C 110.917969 222.046875 93.382812 204.554688 93.382812 182.980469 C 93.382812 161.40625 110.917969 143.914062 132.546875 143.914062 C 144.238281 143.914062 154.730469 149.03125 161.90625 157.136719 L 156.316406 157.136719 C 150.058594 151.40625 141.714844 147.902344 132.546875 147.902344 C 113.125 147.902344 97.378906 163.605469 97.378906 182.980469 C 97.378906 202.355469 113.125 218.058594 132.546875 218.058594 C 141.886719 218.058594 150.371094 214.425781 156.667969 208.5 L 162.1875 208.5 C 155.007812 216.792969 144.394531 222.046875 132.546875 222.046875 Z M 297.683594 203.121094 L 155.488281 203.121094 C 149.886719 209.464844 141.683594 213.46875 132.546875 213.46875 C 115.667969 213.46875 101.984375 199.816406 101.984375 182.980469 C 101.984375 166.144531 115.667969 152.496094 132.546875 152.496094 C 138.503906 152.496094 144.058594 154.195312 148.761719 157.136719 C 151.269531 158.707031 153.539062 160.632812 155.488281 162.84375 L 172.050781 162.84375 C 171.027344 160.847656 169.855469 158.941406 168.554688 157.136719 C 160.5 145.992188 147.371094 138.734375 132.546875 138.734375 C 108.046875 138.734375 88.1875 158.542969 88.1875 182.980469 C 88.1875 207.417969 108.046875 227.226562 132.546875 227.226562 C 147.515625 227.226562 160.75 219.828125 168.785156 208.5 L 297.683594 208.5 L 297.683594 203.121094 " fill-opacity="1" fill-rule="nonzero"/></g><g fill="#ffffff" fill-opacity="1"><g transform="translate(155.181701, 196.136843)"><g><path d="M 4.527344 0 C 5.914062 0 6.960938 -1.019531 6.960938 -2.460938 L 6.960938 -13.980469 C 6.960938 -16.242188 7.78125 -18.367188 9.253906 -19.867188 C 10.726562 -21.421875 12.707031 -22.273438 14.96875 -22.273438 C 17.207031 -22.273438 19.242188 -21.367188 20.742188 -19.808594 C 22.214844 -18.308594 23.0625 -16.1875 23.09375 -13.921875 L 23.09375 -2.460938 C 23.09375 -1.019531 24.222656 0 25.609375 0 C 26.996094 0 28.074219 -1.019531 28.074219 -2.460938 L 28.074219 -13.980469 C 28.074219 -17.601562 26.6875 -20.941406 24.308594 -23.402344 C 21.847656 -25.867188 18.59375 -27.308594 14.96875 -27.308594 C 11.375 -27.308594 8.121094 -25.867188 5.714844 -23.402344 C 3.339844 -20.941406 1.953125 -17.601562 1.953125 -13.980469 L 1.953125 -2.460938 C 1.953125 -1.753906 2.207031 -1.1875 2.746094 -0.707031 C 3.226562 -0.226562 3.820312 0 4.527344 0 Z M 4.527344 0 "/></g></g></g><g fill="#ffffff" fill-opacity="1"><g transform="translate(183.998972, 196.136843)"><g><path d="M 4.527344 0 C 5.914062 0 6.960938 -1.019531 6.960938 -2.460938 L 6.960938 -13.980469 C 6.960938 -16.242188 7.78125 -18.367188 9.253906 -19.867188 C 10.726562 -21.421875 12.707031 -22.273438 14.96875 -22.273438 C 17.207031 -22.273438 19.242188 -21.367188 20.742188 -19.808594 C 22.214844 -18.308594 23.0625 -16.1875 23.09375 -13.921875 L 23.09375 -2.460938 C 23.09375 -1.019531 24.222656 0 25.609375 0 C 26.996094 0 28.074219 -1.019531 28.074219 -2.460938 L 28.074219 -13.980469 C 28.074219 -17.601562 26.6875 -20.941406 24.308594 -23.402344 C 21.847656 -25.867188 18.59375 -27.308594 14.96875 -27.308594 C 11.375 -27.308594 8.121094 -25.867188 5.714844 -23.402344 C 3.339844 -20.941406 1.953125 -17.601562 1.953125 -13.980469 L 1.953125 -2.460938 C 1.953125 -1.753906 2.207031 -1.1875 2.746094 -0.707031 C 3.226562 -0.226562 3.820312 0 4.527344 0 Z M 4.527344 0 "/></g></g></g><g fill="#ffffff" fill-opacity="1"><g transform="translate(212.816242, 196.136843)"><g><path d="M 15.113281 0.339844 C 17.347656 0.339844 19.441406 0 20.941406 -0.652344 C 22.609375 -1.359375 23.433594 -2.265625 23.433594 -3.425781 C 23.433594 -4.101562 23.148438 -4.78125 22.695312 -5.265625 C 22.1875 -5.773438 21.621094 -6.027344 20.96875 -6.027344 C 20.488281 -6.027344 20.007812 -5.886719 19.46875 -5.574219 C 18.140625 -4.78125 17.007812 -4.472656 15.113281 -4.472656 C 13.101562 -4.472656 11.234375 -5.152344 9.734375 -6.394531 C 8.261719 -7.640625 7.214844 -9.28125 6.792969 -11.207031 L 26.542969 -11.207031 C 27.988281 -11.207031 28.980469 -12.226562 28.980469 -13.582031 C 28.949219 -17.289062 27.394531 -20.773438 24.875 -23.289062 C 22.300781 -25.808594 18.820312 -27.308594 15.113281 -27.308594 C 11.375 -27.308594 7.839844 -25.78125 5.320312 -23.261719 C 2.746094 -20.742188 1.246094 -17.234375 1.246094 -13.46875 C 1.246094 -9.734375 2.746094 -6.226562 5.320312 -3.707031 C 7.839844 -1.1875 11.375 0.339844 15.113281 0.339844 Z M 6.648438 -15.394531 C 6.988281 -17.347656 8.007812 -19.1875 9.507812 -20.460938 C 11.007812 -21.789062 13.019531 -22.527344 15.195312 -22.527344 C 17.347656 -22.527344 19.355469 -21.761719 20.914062 -20.488281 C 22.46875 -19.214844 23.515625 -17.402344 23.855469 -15.394531 Z M 6.648438 -15.394531 "/></g></g></g><g fill="#ffffff" fill-opacity="1"><g transform="translate(241.067553, 196.136843)"><g><path d="M 15.140625 0.3125 C 18.761719 0.3125 22.1875 -1.019531 24.535156 -3.367188 C 25.101562 -3.933594 25.414062 -4.726562 25.414062 -5.433594 C 25.414062 -6.113281 25.128906 -6.707031 24.5625 -7.246094 C 24.109375 -7.667969 23.433594 -7.894531 22.949219 -7.894531 C 22.554688 -7.894531 22.160156 -7.78125 21.734375 -7.554688 L 19.753906 -6.167969 C 18.253906 -5.121094 16.753906 -4.753906 14.914062 -4.753906 C 12.507812 -4.753906 10.386719 -5.746094 8.800781 -7.441406 C 7.246094 -9.027344 6.367188 -11.234375 6.367188 -13.5 C 6.367188 -15.734375 7.273438 -17.886719 8.773438 -19.5 C 10.273438 -21.113281 12.394531 -22.128906 14.6875 -22.214844 C 16.613281 -22.214844 18.140625 -21.847656 19.753906 -20.800781 L 21.734375 -19.386719 C 22.101562 -19.1875 22.496094 -19.074219 22.921875 -19.074219 C 23.402344 -19.074219 24.082031 -19.300781 24.5625 -19.726562 C 25.15625 -20.207031 25.441406 -20.828125 25.441406 -21.535156 C 25.441406 -22.242188 25.128906 -22.949219 24.535156 -23.601562 C 22.160156 -25.980469 18.761719 -27.308594 15.140625 -27.308594 C 11.320312 -27.308594 7.8125 -25.808594 5.292969 -23.234375 C 2.714844 -20.660156 1.246094 -17.148438 1.246094 -13.328125 C 1.246094 -9.59375 2.746094 -6.167969 5.320312 -3.652344 C 7.894531 -1.160156 11.375 0.3125 15.140625 0.3125 Z M 15.140625 0.3125 "/></g></g></g><g fill="#ffffff" fill-opacity="1"><g transform="translate(265.809941, 196.136843)"><g><path d="M 16.386719 0.339844 C 19.949219 0.339844 22.921875 -0.792969 25.300781 -3.054688 C 25.867188 -3.621094 26.207031 -4.441406 26.207031 -5.207031 C 26.207031 -5.859375 25.980469 -6.425781 25.527344 -6.875 C 25.046875 -7.300781 24.535156 -7.527344 23.941406 -7.527344 C 23.289062 -7.527344 22.640625 -7.246094 22.046875 -6.679688 C 20.574219 -5.320312 18.675781 -4.640625 16.386719 -4.640625 C 13.980469 -4.640625 11.773438 -5.546875 10.1875 -7.132812 C 8.574219 -8.714844 7.640625 -10.867188 7.640625 -13.242188 L 7.640625 -22.46875 L 18.875 -22.46875 C 20.320312 -22.46875 21.394531 -23.515625 21.394531 -24.875 C 21.394531 -26.261719 20.261719 -27.421875 18.875 -27.421875 L 7.640625 -27.421875 L 7.640625 -32.96875 C 7.640625 -33.675781 7.386719 -34.269531 6.875 -34.78125 C 6.394531 -35.234375 5.714844 -35.515625 5.039062 -35.515625 C 4.359375 -35.515625 3.765625 -35.261719 3.28125 -34.78125 C 2.773438 -34.269531 2.519531 -33.675781 2.519531 -32.96875 L 2.519531 -13.300781 C 2.519531 -9.535156 4.019531 -6.113281 6.59375 -3.59375 C 9.113281 -1.105469 12.566406 0.339844 16.386719 0.339844 Z M 16.386719 0.339844 "/></g></g></g><g fill="#ffffff" fill-opacity="1"><g transform="translate(116.752218, 197.928504)"><g><path d="M 17.125 0.386719 C 21.40625 0.386719 25.394531 -1.351562 28.261719 -4.214844 C 31.125 -7.082031 32.832031 -11.039062 32.832031 -15.320312 C 32.832031 -19.601562 31.125 -23.527344 28.261719 -26.457031 C 25.394531 -29.324219 21.40625 -31.0625 17.125 -31.0625 C 12.875 -31.0625 8.980469 -29.386719 6.050781 -26.457031 C 3.121094 -23.527344 1.417969 -19.570312 1.417969 -15.320312 C 1.417969 -11.074219 3.121094 -7.082031 6.050781 -4.214844 C 8.980469 -1.289062 12.875 0.386719 17.125 0.386719 Z M 17.125 -5.3125 C 14.386719 -5.3125 11.878906 -6.375 10.042969 -8.273438 C 8.207031 -10.105469 7.113281 -12.617188 7.113281 -15.320312 C 7.113281 -18.023438 8.207031 -20.535156 10.042969 -22.371094 C 11.878906 -24.203125 14.386719 -25.300781 17.125 -25.300781 C 19.925781 -25.300781 22.402344 -24.203125 24.238281 -22.371094 C 26.070312 -20.535156 27.132812 -18.023438 27.132812 -15.320312 C 27.132812 -12.617188 26.070312 -10.105469 24.238281 -8.273438 C 22.402344 -6.375 19.925781 -5.3125 17.125 -5.3125 Z M 17.125 -5.3125 "/></g></g></g><g fill="#ffffff" fill-opacity="1"><g transform="translate(148.752065, 197.928504)"><g/></g></g><g fill="#ffffff" fill-opacity="1"><g transform="translate(161.348029, 197.928504)"><g/></g></g><g fill="#ffffff" fill-opacity="1"><g transform="translate(173.943993, 197.928504)"><g/></g></g><g fill="#ffffff" fill-opacity="1"><g transform="translate(168.708538, 236.259683)"><g><path d="M 4.113281 0.148438 C 5.027344 0.148438 5.773438 -0.558594 5.773438 -1.472656 L 5.773438 -6.683594 L 11.039062 -6.683594 C 13.480469 -6.683594 15.769531 -7.632812 17.425781 -9.253906 C 19.082031 -10.871094 20.050781 -13.105469 20.050781 -15.507812 C 20.050781 -17.964844 19.066406 -20.351562 17.425781 -21.96875 C 15.769531 -23.609375 13.5 -24.558594 11.058594 -24.558594 L 4.113281 -24.558594 C 3.222656 -24.558594 2.476562 -23.832031 2.476562 -22.917969 L 2.476562 -1.472656 C 2.476562 -0.578125 3.203125 0.148438 4.113281 0.148438 Z M 5.773438 -9.960938 L 5.773438 -21.242188 L 11.113281 -21.242188 C 12.660156 -21.242188 14.074219 -20.574219 15.117188 -19.511719 C 16.105469 -18.46875 16.71875 -16.941406 16.71875 -15.507812 C 16.71875 -14.074219 16.160156 -12.699219 15.136719 -11.671875 C 14.09375 -10.613281 12.679688 -9.960938 11.097656 -9.960938 Z M 5.773438 -9.960938 "/></g></g></g><g fill="#ffffff" fill-opacity="1"><g transform="translate(187.919122, 236.259683)"><g><path d="M 8.472656 0.0195312 C 9.421875 0.0195312 10.089844 -0.652344 10.089844 -1.601562 C 10.089844 -2.511719 9.421875 -3.222656 8.472656 -3.222656 L 8.359375 -3.222656 C 6.628906 -3.238281 5.566406 -4.300781 5.566406 -6.21875 L 5.566406 -22.75 C 5.566406 -23.21875 5.398438 -23.609375 5.0625 -23.941406 C 4.730469 -24.257812 4.339844 -24.410156 3.871094 -24.410156 C 2.980469 -24.410156 2.269531 -23.699219 2.269531 -22.75 L 2.269531 -6.21875 C 2.269531 -4.375 2.921875 -2.828125 4.058594 -1.710938 C 5.175781 -0.597656 6.703125 0.0195312 8.472656 0.0195312 Z M 8.472656 0.0195312 "/></g></g></g><g fill="#ffffff" fill-opacity="1"><g transform="translate(196.892107, 236.259683)"><g><path d="M 9.90625 0.222656 C 12.046875 0.222656 14.039062 -0.503906 15.621094 -1.824219 L 15.640625 -1.5625 C 15.640625 -0.597656 16.289062 0.128906 17.242188 0.128906 C 18.191406 0.128906 18.917969 -0.613281 18.917969 -1.5625 L 18.917969 -8.972656 C 18.859375 -11.429688 17.890625 -13.683594 16.253906 -15.339844 C 14.597656 -17 12.363281 -17.964844 9.90625 -17.964844 C 7.445312 -17.964844 5.195312 -17 3.539062 -15.304688 C 1.878906 -13.609375 0.894531 -11.339844 0.894531 -8.863281 C 0.894531 -6.386719 1.878906 -4.097656 3.539062 -2.4375 C 5.195312 -0.746094 7.445312 0.222656 9.90625 0.222656 Z M 9.90625 -3.070312 C 8.324219 -3.070312 6.890625 -3.6875 5.847656 -4.785156 C 4.804688 -5.847656 4.1875 -7.296875 4.1875 -8.863281 C 4.1875 -10.425781 4.804688 -11.878906 5.847656 -12.941406 C 6.890625 -14 8.324219 -14.632812 9.90625 -14.632812 C 11.488281 -14.632812 12.941406 -14 14 -12.941406 C 15.042969 -11.878906 15.640625 -10.425781 15.640625 -8.863281 C 15.640625 -7.296875 15.042969 -5.847656 14 -4.785156 C 12.941406 -3.6875 11.523438 -3.070312 9.90625 -3.070312 Z M 9.90625 -3.070312 "/></g></g></g><g fill="#ffffff" fill-opacity="1"><g transform="translate(216.009627, 236.259683)"><g><path d="M 10.78125 0.222656 C 13.125 0.222656 15.082031 -0.519531 16.644531 -2.011719 C 17.015625 -2.382812 17.242188 -2.921875 17.242188 -3.425781 C 17.242188 -3.855469 17.089844 -4.226562 16.792969 -4.523438 C 16.476562 -4.804688 16.140625 -4.953125 15.75 -4.953125 C 15.324219 -4.953125 14.894531 -4.765625 14.503906 -4.394531 C 13.535156 -3.5 12.289062 -3.054688 10.78125 -3.054688 C 9.199219 -3.054688 7.746094 -3.648438 6.703125 -4.691406 C 5.640625 -5.734375 5.027344 -7.148438 5.027344 -8.714844 L 5.027344 -14.78125 L 12.417969 -14.78125 C 13.367188 -14.78125 14.074219 -15.472656 14.074219 -16.367188 C 14.074219 -17.277344 13.332031 -18.039062 12.417969 -18.039062 L 5.027344 -18.039062 L 5.027344 -21.691406 C 5.027344 -22.15625 4.859375 -22.546875 4.523438 -22.882812 C 4.207031 -23.179688 3.761719 -23.367188 3.3125 -23.367188 C 2.867188 -23.367188 2.476562 -23.199219 2.160156 -22.882812 C 1.824219 -22.546875 1.65625 -22.15625 1.65625 -21.691406 L 1.65625 -8.75 C 1.65625 -6.273438 2.644531 -4.023438 4.339844 -2.363281 C 5.996094 -0.726562 8.265625 0.222656 10.78125 0.222656 Z M 10.78125 0.222656 "/></g></g></g><g fill="#ffffff" fill-opacity="1"><g transform="translate(232.148937, 236.259683)"><g><path d="M 2.046875 5.492188 C 3.667969 5.492188 5.136719 4.839844 6.238281 3.722656 C 7.335938 2.605469 7.96875 1.136719 7.96875 -0.484375 L 7.96875 -9.550781 L 10.203125 -9.550781 C 10.667969 -9.550781 11.078125 -9.71875 11.394531 -10.035156 C 11.710938 -10.351562 11.878906 -10.742188 11.878906 -11.207031 C 11.878906 -11.65625 11.710938 -12.046875 11.394531 -12.363281 C 11.078125 -12.679688 10.667969 -12.847656 10.203125 -12.847656 L 7.96875 -12.847656 L 7.96875 -18.675781 C 7.988281 -19.34375 8.304688 -20.03125 8.769531 -20.5 C 9.214844 -20.964844 9.867188 -21.261719 10.59375 -21.261719 L 10.613281 -21.261719 C 11.523438 -21.261719 12.269531 -21.988281 12.269531 -22.882812 C 12.269531 -23.832031 11.542969 -24.558594 10.59375 -24.558594 C 8.972656 -24.558594 7.484375 -23.925781 6.421875 -22.824219 C 5.363281 -21.726562 4.691406 -20.238281 4.671875 -18.675781 L 4.671875 -12.847656 L 3.332031 -12.847656 C 2.867188 -12.847656 2.476562 -12.679688 2.160156 -12.363281 C 1.84375 -12.046875 1.675781 -11.65625 1.675781 -11.207031 C 1.675781 -10.742188 1.824219 -10.351562 2.140625 -10.035156 C 2.457031 -9.71875 2.867188 -9.550781 3.332031 -9.550781 L 4.671875 -9.550781 L 4.671875 -0.484375 C 4.671875 0.222656 4.429688 0.835938 3.945312 1.359375 C 3.425781 1.898438 2.8125 2.179688 2.105469 2.195312 L 2.046875 2.195312 C 1.601562 2.195312 1.210938 2.363281 0.894531 2.679688 C 0.578125 2.996094 0.410156 3.386719 0.410156 3.816406 C 0.410156 4.28125 0.578125 4.691406 0.894531 5.007812 C 1.210938 5.324219 1.601562 5.492188 2.046875 5.492188 Z M 2.046875 5.492188 "/></g></g></g><g fill="#ffffff" fill-opacity="1"><g transform="translate(243.709248, 236.259683)"><g><path d="M 9.90625 0.222656 C 12.382812 0.222656 14.691406 -0.78125 16.347656 -2.4375 C 18.003906 -4.097656 18.992188 -6.386719 18.992188 -8.863281 C 18.992188 -11.339844 18.003906 -13.609375 16.347656 -15.304688 C 14.691406 -16.960938 12.382812 -17.964844 9.90625 -17.964844 C 7.445312 -17.964844 5.195312 -17 3.5 -15.304688 C 1.804688 -13.609375 0.820312 -11.320312 0.820312 -8.863281 C 0.820312 -6.40625 1.804688 -4.097656 3.5 -2.4375 C 5.195312 -0.746094 7.445312 0.222656 9.90625 0.222656 Z M 9.90625 -3.070312 C 8.324219 -3.070312 6.871094 -3.6875 5.808594 -4.785156 C 4.746094 -5.847656 4.113281 -7.296875 4.113281 -8.863281 C 4.113281 -10.425781 4.746094 -11.878906 5.808594 -12.941406 C 6.871094 -14 8.324219 -14.632812 9.90625 -14.632812 C 11.523438 -14.632812 12.957031 -14 14.019531 -12.941406 C 15.082031 -11.878906 15.695312 -10.425781 15.695312 -8.863281 C 15.695312 -7.296875 15.082031 -5.847656 14.019531 -4.785156 C 12.957031 -3.6875 11.523438 -3.070312 9.90625 -3.070312 Z M 9.90625 -3.070312 "/></g></g></g><g fill="#ffffff" fill-opacity="1"><g transform="translate(261.989141, 236.259683)"><g><path d="M 3.351562 0 C 4.246094 0 4.933594 -0.6875 4.933594 -1.636719 L 4.933594 -8.453125 C 4.933594 -10.148438 5.605469 -11.691406 6.777344 -12.863281 C 7.914062 -14 9.457031 -14.691406 11.113281 -14.691406 L 11.207031 -14.691406 C 12.175781 -14.691406 12.921875 -15.378906 12.921875 -16.328125 C 12.921875 -17.296875 12.304688 -17.964844 11.207031 -17.964844 L 11.113281 -17.964844 C 8.5625 -17.964844 6.199219 -16.941406 4.429688 -15.171875 C 2.699219 -13.40625 1.65625 -11.003906 1.65625 -8.453125 L 1.65625 -1.636719 C 1.65625 -1.171875 1.824219 -0.78125 2.179688 -0.464844 C 2.496094 -0.148438 2.886719 0 3.351562 0 Z M 3.351562 0 "/></g></g></g><g fill="#ffffff" fill-opacity="1"><g transform="translate(273.791432, 236.259683)"><g><path d="M 3.40625 0 C 4.300781 0 5.027344 -0.6875 5.027344 -1.636719 L 5.082031 -12.34375 C 5.082031 -12.417969 5.0625 -12.511719 5.046875 -12.640625 C 5.136719 -13.332031 5.492188 -13.964844 6.011719 -14.410156 C 6.554688 -14.894531 7.1875 -15.136719 7.914062 -15.136719 C 8.695312 -15.136719 9.382812 -14.839844 9.960938 -14.261719 C 10.464844 -13.722656 10.761719 -12.976562 10.761719 -12.175781 L 10.761719 -1.675781 C 10.761719 -0.761719 11.488281 -0.0195312 12.398438 -0.0195312 C 12.847656 -0.0195312 13.238281 -0.1875 13.554688 -0.503906 C 13.851562 -0.800781 14.039062 -1.230469 14.039062 -1.675781 L 14.039062 -12.269531 C 14.039062 -12.398438 14.039062 -12.472656 14.019531 -12.492188 C 14.074219 -13.238281 14.375 -13.851562 14.914062 -14.355469 C 15.453125 -14.855469 16.085938 -15.117188 16.832031 -15.117188 C 17.574219 -15.117188 18.339844 -14.820312 18.878906 -14.296875 C 19.417969 -13.757812 19.753906 -13.050781 19.773438 -12.304688 L 19.773438 -1.636719 C 19.773438 -0.6875 20.5 0 21.410156 0 C 22.324219 0 23.050781 -0.6875 23.050781 -1.636719 L 23.050781 -12.398438 C 23.050781 -14.019531 22.339844 -15.582031 21.207031 -16.71875 C 20.03125 -17.835938 18.46875 -18.507812 16.8125 -18.507812 C 15.082031 -18.507812 13.480469 -17.761719 12.34375 -16.550781 C 11.171875 -17.761719 9.589844 -18.507812 7.855469 -18.507812 C 6.199219 -18.507812 4.671875 -17.835938 3.554688 -16.71875 C 2.421875 -15.582031 1.75 -14.039062 1.75 -12.398438 L 1.75 -1.636719 C 1.75 -0.6875 2.496094 0 3.40625 0 Z M 3.40625 0 "/></g></g></g></svg>