<?xml version="1.0" encoding="utf-8"?>
<!-- Generator: Adobe Illustrator 24.1.3, SVG Export Plug-In . SVG Version: 6.00 Build 0)  -->
<svg version="1.1" id="Layer_1" xmlns="http://www.w3.org/2000/svg" xmlns:xlink="http://www.w3.org/1999/xlink" x="0px" y="0px"
	 viewBox="0 0 600 396" style="enable-background:new 0 0 600 396;" xml:space="preserve">
<style type="text/css">
	.st0{fill:url(#SVGID_1_);}
	.st1{fill:#BDD0FB;}
	.st2{fill:#FFFFFF;}
	.st3{fill:#91B3FA;}
	.st4{fill:url(#SVGID_2_);}
	.st5{fill:#008CFF;}
	.st6{fill:#034479;}
	.st7{fill:url(#SVGID_3_);}
	.st8{fill:#006FBA;}
	.st9{fill:#50B8FF;}
	.st10{opacity:0.6;}
	.st11{opacity:0.6;fill:#FFFFFF;}
	.st12{opacity:0.81;fill:#FFFFFF;}
	.st13{fill:#F9B122;}
	.st14{fill:url(#SVGID_4_);}
	.st15{fill:url(#SVGID_5_);}
	.st16{fill:url(#SVGID_6_);}
	.st17{fill:url(#SVGID_7_);}
	.st18{fill:url(#SVGID_8_);}
	.st19{fill:url(#SVGID_9_);}
	.st20{fill:url(#SVGID_10_);}
	.st21{fill:url(#SVGID_11_);}
	.st22{fill:url(#SVGID_12_);}
	.st23{fill:url(#SVGID_13_);}
	.st24{fill:url(#SVGID_14_);}
	.st25{fill:url(#SVGID_15_);}
	.st26{fill:url(#SVGID_16_);}
	.st27{fill:url(#SVGID_17_);}
	.st28{fill:url(#SVGID_18_);}
	.st29{fill:url(#SVGID_19_);}
	.st30{fill:url(#SVGID_20_);}
	.st31{fill:url(#SVGID_21_);}
	.st32{fill:url(#SVGID_22_);}
	.st33{fill:url(#SVGID_23_);}
	.st34{fill:url(#SVGID_24_);}
	.st35{fill:url(#SVGID_25_);}
	.st36{fill:url(#SVGID_26_);}
	.st37{fill:url(#SVGID_27_);}
	.st38{fill:url(#SVGID_28_);}
	.st39{fill:url(#SVGID_29_);}
	.st40{fill:url(#SVGID_30_);}
	.st41{fill:url(#SVGID_31_);}
	.st42{fill:url(#SVGID_32_);}
	.st43{fill:url(#SVGID_33_);}
	.st44{fill:url(#SVGID_34_);}
	.st45{fill:url(#SVGID_35_);}
	.st46{fill:url(#SVGID_36_);}
	.st47{fill:url(#SVGID_37_);}
	.st48{fill:url(#SVGID_38_);}
	.st49{fill:url(#SVGID_39_);}
	.st50{fill:url(#SVGID_40_);}
	.st51{fill:url(#SVGID_41_);}
	.st52{fill:url(#SVGID_42_);}
	.st53{fill:url(#SVGID_43_);}
	.st54{fill:url(#SVGID_44_);}
	.st55{fill:url(#SVGID_45_);}
	.st56{fill:url(#SVGID_46_);}
	.st57{fill:url(#SVGID_47_);}
	.st58{fill:url(#SVGID_48_);}
	.st59{fill:url(#SVGID_49_);}
	.st60{fill:url(#SVGID_50_);}
</style>
<g>
	<linearGradient id="SVGID_1_" gradientUnits="userSpaceOnUse" x1="508.9254" y1="435.2653" x2="226.0273" y2="129.915">
		<stop  offset="0" style="stop-color:#DAE3FE"/>
		<stop  offset="1" style="stop-color:#E9EFFD"/>
	</linearGradient>
	<path class="st0" d="M469.5,261.3C430.6,352.1,328,391.1,247.6,384.5c-22-1.8-66.1-5.5-100.6-38.1c-66.2-62.6-56-193.5,7.4-270.6
		c8.2-9.9,64.7-76.4,152.7-75.5c64.5,0.7,109.7,37.1,115.2,41.6c7,5.7,22.3,19.4,36.1,41C490.9,133.6,493.8,204.5,469.5,261.3z"/>
	<g>
		<path class="st1" d="M499.2,3c0.9-1.8-1.5-3.7-3.4-2.8c-19.8,9.5-69.3,40.3-76.2,113.2c-8.6,91.4-37.6,118.6-68.9,132
			c0,0,38.7-0.6,69.4-27.8C495.7,150.6,483.3,34.9,499.2,3z"/>
		<path class="st2" d="M480,27.6c-4.4,9.4-8.6,18.8-12.4,28.4c-3.9,9.6-7.4,19.2-10.5,29c-3.1,9.8-6,19.6-8.4,29.6
			c-2.5,10-4.4,20-6.3,30.1c-2,10.1-3.9,20.3-7.1,30.3c-3.1,10-7.7,19.7-14.2,28.2c-1.6,2.1-3.3,4.3-5.1,6.2c-1.8,2-3.6,4-5.6,5.9
			c-3.9,3.8-8,7.4-12.5,10.7c-9,6.6-19.2,11.8-30,15.8c-1.1,0.4-2.5-0.1-3.1-1.1c-0.5-1-0.1-2.2,1-2.6l0,0c2.6-1,5.2-2.1,7.7-3.2
			c1.3-0.6,2.5-1.2,3.7-1.8c1.2-0.6,2.5-1.2,3.6-1.9c4.8-2.6,9.4-5.5,13.6-8.7c8.6-6.3,16-13.9,22.3-22c3.1-4.1,5.8-8.5,8.1-13
			c2.3-4.5,4.2-9.2,5.7-14.1c3.1-9.7,5.2-19.7,7.2-29.8c2.1-10.1,4.3-20.2,6.9-30.2c1.3-5,2.7-10,4.3-14.9c0.7-2.5,1.5-4.9,2.3-7.4
			c0.8-2.5,1.7-4.9,2.5-7.3c3.5-9.7,7.3-19.4,11.4-28.9c4.2-9.5,8.7-18.8,13.6-28c0.1-0.3,0.5-0.4,0.8-0.2
			C480,27,480.1,27.4,480,27.6z"/>
	</g>
	<g>
		<g>
			<path class="st3" d="M405.3,204.4c1.5,2.6,5.3,2.9,7.1,0.5c10.3-13.3,36.1-53.6,22.9-110.2c-11.2-47.8-12.7-74.8-12.5-87.1
				c0-2.6-3.3-3.7-4.8-1.7C400.6,28.8,350.2,108.6,405.3,204.4z"/>
			<path class="st2" d="M409.4,203.8c0.1,0,0.1,0.1,0.2,0.1c0.6,0.1,1.3-0.3,1.4-0.9c0.2-0.7,16-73.6,3.5-140.8
				c-0.1-0.6-0.7-1.1-1.4-1c-0.6,0.1-1.1,0.7-1,1.4c12.4,66.7-3.3,139.1-3.5,139.9C408.6,203,408.9,203.5,409.4,203.8z"/>
		</g>
	</g>
	<g>
		
			<linearGradient id="SVGID_2_" gradientUnits="userSpaceOnUse" x1="-6826.0752" y1="51.2887" x2="-6713.085" y2="51.2887" gradientTransform="matrix(-1 0 0 1 -6535.2148 0)">
			<stop  offset="0" style="stop-color:#2B3582"/>
			<stop  offset="1" style="stop-color:#150E42"/>
		</linearGradient>
		<path class="st4" d="M179.1,99.7C179.1,99.7,179,99.7,179.1,99.7c-0.7,0-1.2-0.6-1.2-1.3c0-0.2,0.7-16.2,4.7-34.9
			c5.5-25.2,14.2-42.8,25.9-52.4c8.4-6.9,18.3-9.5,29.3-7.8c12.8,2,23.5,8.3,31.9,18.7c6.7,8.3,11.9,19.2,15.5,32.3
			c6.2,22.3,5.6,43.9,5.6,44.1c0,0.7-0.6,1.2-1.2,1.2c-0.7,0-1.2-0.6-1.2-1.2c0-0.2,0.6-21.5-5.5-43.4c-3.5-12.8-8.6-23.4-15.1-31.4
			c-8-9.9-18.3-15.9-30.4-17.9C227.1,4.1,217.8,6.6,210,13c-14.1,11.6-21.4,34.2-25.1,51.1c-4,18.4-4.6,34.3-4.7,34.5
			C180.3,99.2,179.7,99.7,179.1,99.7z"/>
		<path class="st5" d="M392.3,367.9L350.4,79l-163.8-2.1l-38.9,306.7l231,0.4C387.1,384,393.6,376.4,392.3,367.9z"/>
		<path class="st6" d="M156.6,79.5l30-2.6l-38.9,306.7L112,384c-6.2,0-7.5-1.7-6.3-7.8L156.6,79.5z"/>
		
			<linearGradient id="SVGID_3_" gradientUnits="userSpaceOnUse" x1="-6859.8931" y1="50.6272" x2="-6746.9023" y2="50.6272" gradientTransform="matrix(-1 0 0 1 -6535.2148 0)">
			<stop  offset="0" style="stop-color:#2B3582"/>
			<stop  offset="1" style="stop-color:#150E42"/>
		</linearGradient>
		<path class="st7" d="M212.9,99.1C212.9,99.1,212.9,99.1,212.9,99.1c-0.7,0-1.2-0.6-1.2-1.3c0-0.2,0.7-16.2,4.7-34.9
			c5.5-25.2,14.2-42.8,25.9-52.4c8.4-6.9,18.3-9.5,29.3-7.8c12.8,2,23.5,8.3,31.9,18.7c6.7,8.3,11.9,19.2,15.5,32.3
			c6.2,22.3,5.6,43.9,5.6,44.1c0,0.7-0.6,1.2-1.2,1.2c-0.7,0-1.2-0.6-1.2-1.2c0-0.2,0.6-21.5-5.5-43.4c-3.5-12.8-8.6-23.4-15.1-31.4
			c-8-9.9-18.3-15.9-30.4-17.9c-10.4-1.6-19.6,0.8-27.4,7.2c-14.1,11.6-21.4,34.1-25.1,51.1c-4,18.4-4.7,34.3-4.7,34.5
			C214.1,98.5,213.5,99.1,212.9,99.1z"/>
	</g>
	<g>
		<path class="st8" d="M226,108.4c0-11.8,9.6-21.4,21.4-21.4h182.3c10.1,0,18.4,7.9,18.9,17.9l13.5,264.4
			c0.4,7.9-5.8,14.5-13.7,14.6l-209,3.8c-7.4,0.1-13.5-5.8-13.5-13.2V108.4z"/>
		<g>
			<path class="st9" d="M240.9,91c0-3.8,3.3-6.7,7.1-6.2c24.9,3.4,110.5,13.8,181.3,8.4c3.2-0.2,6,2.2,6.2,5.4l14.1,265.5
				c0.2,3.6-2.6,6.8-6.2,7c-29.8,1.8-152.4,8.6-196.1,4c-2.7-0.3-4.7-2.5-4.7-5.2L240.9,91z"/>
			<path class="st1" d="M243.9,97.6c0-3.6,3.2-6.5,6.8-6c24,3.2,106.4,13.3,174.5,8.1c3.1-0.2,5.8,2.1,6,5.2l13.6,255.5
				c0.2,3.5-2.5,6.5-6,6.7C410,368.9,292,375.5,250,371c-2.6-0.3-4.5-2.4-4.5-5L243.9,97.6z"/>
			<g class="st10">
				<path class="st2" d="M419.9,122.6c0.4,0,0.6-0.3,0.6-0.6l-0.1-2.4c0-0.4-0.3-0.7-0.7-0.7l-68.7-1.2c-0.4,0-0.6,0.3-0.4,0.6
					l1.3,3.7c0.1,0.3,0.5,0.6,0.9,0.6H419.9z"/>
			</g>
			<g class="st10">
				<path class="st2" d="M351,133c-0.4,0-0.6,0.3-0.4,0.6l1.3,3.7c0.1,0.3,0.5,0.6,0.9,0.6h67.1c0.4,0,0.6-0.3,0.6-0.6l-0.1-2.4
					c0-0.4-0.3-0.7-0.7-0.7L351,133z"/>
			</g>
			<g class="st10">
				<path class="st2" d="M350.6,163.5c-0.4,0-0.6,0.3-0.4,0.6l1.3,3.7c0.1,0.3,0.5,0.6,0.9,0.6h67.1c0.4,0,0.6-0.3,0.6-0.6l-0.1-2.4
					c0-0.4-0.3-0.7-0.7-0.7L350.6,163.5z"/>
			</g>
			<g class="st10">
				<path class="st2" d="M351,149c-0.4,0-0.6,0.3-0.4,0.6l1.3,3.7c0.1,0.3,0.5,0.6,0.9,0.6h67.1c0.4,0,0.6-0.3,0.6-0.6l-0.1-2.4
					c0-0.4-0.3-0.7-0.7-0.7L351,149z"/>
			</g>
			<g class="st10">
				<path class="st2" d="M423.9,204.3c0.4,0,0.6-0.3,0.6-0.6l-0.2-2.4c0-0.4-0.3-0.7-0.7-0.7l-163.2-1.2c-0.4,0-0.5,0.2-0.2,0.5
					l3.2,3.9c0.2,0.3,0.7,0.5,1.1,0.5H423.9z"/>
			</g>
			<g class="st10">
				<path class="st2" d="M260.5,215.2c-0.4,0-0.5,0.2-0.2,0.5l3.2,3.9c0.2,0.3,0.7,0.5,1.1,0.5h159.4c0.4,0,0.6-0.3,0.6-0.6
					l-0.2-2.4c0-0.4-0.3-0.7-0.7-0.7L260.5,215.2z"/>
			</g>
			<g>
				<g class="st10">
					<path class="st2" d="M261.9,279.2c0.4,1.4,1.7,2.4,3.1,2.4l120.3-1c1.4,0,2.4-1.1,2.4-2.5c0-1.3-1.1-2.4-2.4-2.4L265,275.2
						C262.9,275.2,261.4,277.2,261.9,279.2z"/>
				</g>
				<g class="st10">
					<path class="st2" d="M261.6,255.3c0.4,1.4,1.7,2.4,3.1,2.4l120.3-1c1.4,0,2.4-1.1,2.4-2.5c0-1.3-1.1-2.4-2.4-2.4l-120.3-0.5
						C262.6,251.2,261,253.2,261.6,255.3z"/>
				</g>
				<g class="st10">
					<path class="st2" d="M261.9,307.1c0.4,1.4,1.7,2.4,3.1,2.4l120.3-1c1.4,0,2.4-1.1,2.4-2.5c0-1.3-1.1-2.4-2.4-2.4L265,303
						C262.9,303,261.4,305,261.9,307.1z"/>
				</g>
				<g class="st10">
					<path class="st2" d="M263.3,335c0.4,1.4,1.7,2.4,3.1,2.4l120.3-1c1.4,0,2.4-1.1,2.4-2.5c0-1.3-1.1-2.4-2.4-2.4l-120.3-0.5
						C264.3,330.9,262.8,332.9,263.3,335z"/>
				</g>
				<g>
					<g>
						<path class="st2" d="M419.7,260.4C419.7,260.4,419.7,260.4,419.7,260.4l-13,0.3c-1.9,0-3.4-1.2-3.7-2.9l-1.5-10.9
							c-0.1-0.6,0.1-1.3,0.5-1.8c0.5-0.6,1.2-1,2-1l0,0c1.1-0.1,2.6-0.3,4.3-0.5c3.4-0.4,7.7-0.9,10.1-1c1.7-0.1,3.3,0.9,3.7,2.4
							c0.8,2.5,0.8,7.2,0.9,12.3C423,259,421.5,260.4,419.7,260.4z M404.1,245.1c-0.5,0.1-1,0.3-1.3,0.7c-0.2,0.3-0.3,0.7-0.3,1
							l1.5,10.9c0.2,1.2,1.3,2,2.6,2l13-0.3c0,0,0,0,0,0c1.3,0,2.3-1,2.3-2.1c0-5-0.1-9.6-0.8-12c-0.3-1.1-1.4-1.8-2.7-1.7
							c-2.4,0.1-6.6,0.6-10,1C406.8,244.9,405.2,245,404.1,245.1L404.1,245.1z"/>
						<path class="st11" d="M405.6,246.2c2.7-0.3,8.6-1.1,11.5-1.2c1.2-0.1,2.3,0.6,2.6,1.7c0.6,2,0.7,6,0.7,9.7c0,1.1-1,2-2.2,2
							l-10.4,0.2c-1.3,0-2.4-0.8-2.5-1.9L404,248C403.8,247.1,404.6,246.3,405.6,246.2z"/>
					</g>
					<g>
						<path class="st2" d="M422.6,287.3C422.6,287.3,422.6,287.3,422.6,287.3l-13,0.3c-1.9,0-3.4-1.2-3.7-2.9l-1.5-10.9
							c-0.1-0.6,0.1-1.3,0.5-1.8c0.5-0.6,1.2-1,2-1l0,0c1.1-0.1,2.6-0.3,4.3-0.5c3.4-0.4,7.7-0.9,10.1-1c0,0,0,0,0.1,0
							c1.7-0.1,3.2,0.9,3.7,2.4c0.8,2.5,0.8,7.2,0.9,12.3C425.8,285.9,424.4,287.2,422.6,287.3z M407,272c-0.5,0.1-1,0.3-1.3,0.7
							c-0.2,0.3-0.3,0.7-0.3,1l1.5,10.9c0.2,1.2,1.3,2,2.6,2l13-0.3c0,0,0,0,0,0c1.3,0,2.3-1,2.3-2.1c0-5-0.1-9.6-0.8-12
							c-0.3-1.1-1.5-1.8-2.7-1.7c-2.4,0.1-6.6,0.6-10,1C409.6,271.7,408.1,271.9,407,272L407,272z"/>
						<path class="st11" d="M408.4,273.1c2.7-0.3,8.6-1.1,11.5-1.2c1.2-0.1,2.3,0.6,2.6,1.7c0.6,2,0.7,6,0.7,9.7c0,1.1-1,2-2.2,2
							l-10.4,0.2c-1.3,0-2.4-0.8-2.5-1.9l-1.2-8.7C406.7,274,407.4,273.2,408.4,273.1z"/>
					</g>
					<g>
						<path class="st2" d="M423.4,315.1C423.4,315.1,423.4,315.1,423.4,315.1l-13,0.3c-1.9,0-3.4-1.2-3.7-2.9l-1.5-10.9
							c-0.1-0.6,0.1-1.3,0.5-1.8c0.5-0.6,1.2-1,2-1l0,0c1.1-0.1,2.6-0.3,4.3-0.5c3.4-0.4,7.7-0.9,10.1-1c0,0,0,0,0.1,0
							c1.7-0.1,3.2,0.9,3.7,2.4c0.8,2.5,0.8,7.2,0.9,12.3C426.7,313.7,425.2,315.1,423.4,315.1z M407.8,299.8
							c-0.5,0.1-1,0.3-1.3,0.7c-0.2,0.3-0.3,0.7-0.3,1l1.5,10.9c0.2,1.2,1.3,2,2.6,2l13-0.3c0,0,0,0,0,0c1.3,0,2.3-1,2.3-2.1
							c0-5-0.1-9.6-0.8-12c-0.3-1.1-1.5-1.8-2.7-1.7c-2.4,0.1-6.6,0.6-10,1C410.5,299.6,408.9,299.7,407.8,299.8L407.8,299.8z"/>
						<path class="st11" d="M409.3,300.9c2.7-0.3,8.6-1.1,11.5-1.2c1.2-0.1,2.3,0.6,2.6,1.7c0.6,2,0.7,6,0.7,9.7c0,1.1-1,2-2.2,2
							l-10.4,0.2c-1.3,0-2.4-0.8-2.5-1.9l-1.2-8.7C407.5,301.8,408.3,301,409.3,300.9z"/>
					</g>
					<g>
						<path class="st2" d="M424.3,343C424.3,343,424.3,343,424.3,343l-13,0.3c-1.9,0-3.4-1.2-3.7-2.9l-1.5-10.9
							c-0.1-0.6,0.1-1.3,0.5-1.8c0.5-0.6,1.2-1,2-1l0,0c1.1-0.1,2.6-0.3,4.3-0.5c3.4-0.4,7.7-0.9,10.1-1c0,0,0,0,0.1,0
							c1.7-0.1,3.2,0.9,3.7,2.4c0.8,2.5,0.8,7.2,0.9,12.3C427.5,341.6,426.1,342.9,424.3,343z M408.7,327.7c-0.5,0.1-1,0.3-1.3,0.7
							c-0.2,0.3-0.3,0.7-0.3,1l1.5,10.9c0.2,1.2,1.3,2,2.6,2l13-0.3c0,0,0,0,0,0c1.3,0,2.3-1,2.3-2.1c0-5-0.1-9.6-0.8-12
							c-0.3-1.1-1.5-1.8-2.7-1.7c-2.4,0.1-6.6,0.6-10,1C411.3,327.4,409.8,327.6,408.7,327.7L408.7,327.7z"/>
						<path class="st11" d="M410.1,328.8c2.7-0.3,8.6-1.1,11.5-1.2c1.2-0.1,2.3,0.6,2.6,1.7c0.6,2,0.7,6,0.7,9.7c0,1.1-1,2-2.2,2
							l-10.4,0.2c-1.3,0-2.4-0.8-2.5-1.9l-1.2-8.7C408.4,329.7,409.1,328.9,410.1,328.8z"/>
					</g>
				</g>
			</g>
			<g>
				<path class="st12" d="M297,190.8c-25,0-45.3-20.3-45.3-45.3s20.3-45.3,45.3-45.3s45.3,20.3,45.3,45.3S321.9,190.8,297,190.8z
					 M297,104.2c-22.8,0-41.4,18.6-41.4,41.4s18.6,41.4,41.4,41.4s41.4-18.6,41.4-41.4S319.8,104.2,297,104.2z"/>
				<g>
					<g>
						<path class="st2" d="M310.3,126.6c-3.9-3.8-8.2-6.5-13.7-8.7c-1.7-0.7-3.6-0.7-5.3,0.1c-1.6,0.7-2.9,2-3.5,3.7
							c-1.3,3.4,0.5,7.3,4,8.6c3.9,1.5,7.6,3.7,10.4,6.2c2.6,2.3,5.2,5.8,6.9,9.6c2.6,5.7,3.2,11.6,1.6,16.3
							c-1.9,5.6-6.1,9-11.7,9.3c-5,0.3-9.5-2-11.8-6c-3.4-5.8-2-12.8,3.3-17c3.4-2.3,3.3-6,1.9-8.4c-1.5-2.5-4.8-4.3-8.6-2.4
							c-5.7,3.1-9.5,9.2-10,16.1c-0.5,7.6,2.6,14.6,8.5,19.1c4.3,3.3,9.8,5,15,5c2.3,0,4.7-0.3,7-1c8.4-2.6,14.7-9.4,16.6-18.6
							C323.3,147.7,319,134.9,310.3,126.6z"/>
						<path class="st2" d="M312.9,125.3c4.2,4.7,7.1,10.5,8.5,16.4c0-14.8-6-24.6-11-27.2c-1.5-0.8-6.2-1.2-8.9,1.6
							C306.1,118.7,309.7,121.6,312.9,125.3z"/>
					</g>
					<circle class="st13" cx="276.1" cy="127" r="7.7"/>
				</g>
			</g>
		</g>
		<linearGradient id="SVGID_4_" gradientUnits="userSpaceOnUse" x1="370.2429" y1="23.661" x2="286.3741" y2="133.9883">
			<stop  offset="0" style="stop-color:#09005D"/>
			<stop  offset="1" style="stop-color:#1A0F91"/>
		</linearGradient>
		<path class="st14" d="M349.9,50.9c-6.6-4.6-12.3-4.5-16.3-3.3c-3.7,1.1-6.1,4.6-5.7,8.5l1.7,19l20.7,1.8
			C350.3,76.8,362.8,59.9,349.9,50.9z M340.8,66.2c-2.8,0-5.2-2.3-5.2-5.2c0-2.8,2.3-5.2,5.2-5.2c2.8,0,5.2,2.3,5.2,5.2
			C346,63.9,343.7,66.2,340.8,66.2z"/>
		<path class="st2" d="M331.6,67c-0.3,0-0.5-0.2-0.5-0.5l-0.3-3c0-0.3,0.2-0.5,0.5-0.5c0.3,0,0.5,0.2,0.5,0.5l0.3,3
			C332.2,66.8,332,67,331.6,67C331.7,67,331.7,67,331.6,67z M331.1,61.1c-0.3,0-0.5-0.2-0.5-0.5l-0.2-2.3c-0.3-3.6,2-7,5.4-8.1
			c2.5-0.7,5-0.8,7.6-0.3c0.3,0.1,0.4,0.3,0.4,0.6c-0.1,0.3-0.3,0.4-0.6,0.4c-2.4-0.5-4.8-0.4-7.1,0.3c-3,0.9-5,3.8-4.7,7l0.2,2.3
			C331.6,60.8,331.4,61.1,331.1,61.1C331.1,61.1,331.1,61.1,331.1,61.1z"/>
		<linearGradient id="SVGID_5_" gradientUnits="userSpaceOnUse" x1="379.4427" y1="30.6542" x2="295.5738" y2="140.9817">
			<stop  offset="0" style="stop-color:#09005D"/>
			<stop  offset="1" style="stop-color:#1A0F91"/>
		</linearGradient>
		<path class="st15" d="M301.3,87.3v-9.5c0-3.3,2.7-5.9,6-5.8l65.8,2.3c2.9,0.1,5.3,2.4,5.5,5.3l0.5,9.2L301.3,87.3z"/>
		<path class="st2" d="M325.9,75.5H323c-0.3,0-0.5-0.2-0.5-0.5c0-0.3,0.2-0.5,0.5-0.5h2.8c0.3,0,0.5,0.2,0.5,0.5
			C326.4,75.3,326.1,75.5,325.9,75.5z"/>
		<path class="st2" d="M304.9,84.3c-0.3,0-0.5-0.2-0.5-0.5v-3.9c0-3,2.4-5.4,5.4-5.4h10.4c0.3,0,0.5,0.2,0.5,0.5
			c0,0.3-0.2,0.5-0.5,0.5h-10.4c-2.4,0-4.4,2-4.4,4.4v3.9C305.4,84.1,305.2,84.3,304.9,84.3z"/>
		<path class="st5" d="M274.5,89.7c0.2-3.3,2.9-5.9,6.2-5.9l115,0c4.1,0,7.7,3,8.4,7.1l0.1,0.6c0.8,4.5-2.7,8.5-7.2,8.5H279
			c-2.7,0-4.9-2.3-4.7-5L274.5,89.7z"/>
	</g>
	<g>
		<g>
			<g>
				<linearGradient id="SVGID_6_" gradientUnits="userSpaceOnUse" x1="304.38" y1="183.1939" x2="256.6898" y2="218.317">
					<stop  offset="0" style="stop-color:#FEBBBA"/>
					<stop  offset="1" style="stop-color:#FF928E"/>
				</linearGradient>
				<path class="st16" d="M263.9,205.7c0,0-2.2-5.7-4.7-5.2c-2.5,0.5-5.3,2.5-5.3,2.5l-4.1,5.5c0,0,11.4,4.5,15.4,1.9
					c0,0,11.6,2,26.3-0.4c-2.1-4.5-3.4-9-4.1-12.5C280,201.7,272,204.9,263.9,205.7z"/>
				<linearGradient id="SVGID_7_" gradientUnits="userSpaceOnUse" x1="352.9516" y1="91.6074" x2="291.0832" y2="231.778">
					<stop  offset="0" style="stop-color:#FF928E"/>
					<stop  offset="1" style="stop-color:#FE7062"/>
				</linearGradient>
				<path class="st17" d="M325.5,164.4c0,0-16.6,21-38,33.1c0.7,3.5,2,8,4.1,12.5c11.1-1.8,24-6.2,34.9-15.8L325.5,164.4z"/>
			</g>
			<linearGradient id="SVGID_8_" gradientUnits="userSpaceOnUse" x1="395.0826" y1="110.2028" x2="333.2141" y2="250.3735">
				<stop  offset="0" style="stop-color:#FF928E"/>
				<stop  offset="1" style="stop-color:#FE7062"/>
			</linearGradient>
			<path class="st18" d="M346.3,257.3c-3.3-15.5-6.5-24.4-17.4-53.7c-3.4-9.2-6.5-18.6-5-28.3l1.7-10.9c0,0,21.2-7.2,44.7-0.3
				c0,0,32,13.9,10.3,82.6C370.6,257.7,359.2,260.9,346.3,257.3z"/>
			
				<linearGradient id="SVGID_9_" gradientUnits="userSpaceOnUse" x1="-946.9114" y1="162.6304" x2="-953.5968" y2="142.5744" gradientTransform="matrix(1 0 0 1 1290.1023 0)">
				<stop  offset="0" style="stop-color:#FEBBBA"/>
				<stop  offset="1" style="stop-color:#FF928E"/>
			</linearGradient>
			<path class="st19" d="M329.1,150.5l5.5,13.2c0.3,0.8,1.1,1.4,2,1.6c3.2,0.5,10.8,1.4,15.9-1.9c0.6-0.4,0.8-1.2,0.3-1.8L342.6,147
				L329.1,150.5z"/>
			<g>
				<linearGradient id="SVGID_10_" gradientUnits="userSpaceOnUse" x1="327.575" y1="138.018" x2="351.6034" y2="148.4652">
					<stop  offset="0" style="stop-color:#FEBBBA"/>
					<stop  offset="1" style="stop-color:#FF928E"/>
				</linearGradient>
				<path class="st20" d="M334.8,130.3c-0.2,0.2-9.7,18.9-9.7,18.9l10.8,5.2l11.6-16.4C347.5,138,338.7,126.7,334.8,130.3z"/>
				
					<linearGradient id="SVGID_11_" gradientUnits="userSpaceOnUse" x1="3494.3035" y1="4422.7021" x2="3523.0071" y2="4422.7021" gradientTransform="matrix(-0.6854 -0.7281 -0.7281 0.6854 5960.1147 -334.7024)">
					<stop  offset="0" style="stop-color:#09005D"/>
					<stop  offset="1" style="stop-color:#1A0F91"/>
				</linearGradient>
				<path class="st21" d="M342.6,140l-5.4,9c-0.1,0.1-0.2,0.3-0.3,0.4c-0.6,0.6-2.8,2.3-4.5,0c-1.4-2-2.8-3.8-4.2-4.6
					c-0.8-0.4-1.9-0.1-2.3,0.8c-0.9,1.8-2.6,5.3-3.7,8.7c-0.3,0.9,0.2,1.8,1,2.1c2.2,0.9,6.5,2.5,10.3,3c0.6,0.1,1.3-0.2,1.6-0.7
					c1.6-2.3,6.3-8.6,7.9-10.1c1.5-1.5,4.2-0.9,5.4-0.6c0.5,0.1,1,0.1,1.4-0.2c1.2-0.7,3.4-2.6,1.4-5.8c-0.5-0.8-0.2-1.8,0.5-2.3
					c1.4-0.9,2.9-2.6,1.5-5.4c-1.5-2.8-4-3.1-5.8-2.8c-0.8,0.1-1.6-0.3-1.9-1c-0.1-0.3-0.4-0.6-0.9-0.7c-0.9-0.2-1.5-1-1.3-2
					c0.3-1.6,0.1-3.6-2.5-5c-4.6-2.6-8.7,1.6-9.8,5.1c-1,3.5,4.2,6,7.4,6.4c2.4,0.3,3.7,2.9,4.2,4.3
					C342.9,139,342.9,139.5,342.6,140z"/>
				<linearGradient id="SVGID_12_" gradientUnits="userSpaceOnUse" x1="326.0776" y1="141.4618" x2="350.106" y2="151.909">
					<stop  offset="0" style="stop-color:#FEBBBA"/>
					<stop  offset="1" style="stop-color:#FF928E"/>
				</linearGradient>
				<path class="st22" d="M340.7,151.1c0,0,2.3-5.4,5-5.2c2.6,0.2,4.7,2.9,1.4,5.8C343,155.4,340.7,151.1,340.7,151.1z"/>
			</g>
			<g>
				
					<linearGradient id="SVGID_13_" gradientUnits="userSpaceOnUse" x1="1270.5541" y1="395.0468" x2="1300.4161" y2="395.0468" gradientTransform="matrix(-1 0 0 1 1643.7585 0)">
					<stop  offset="0" style="stop-color:#09005D"/>
					<stop  offset="1" style="stop-color:#1A0F91"/>
				</linearGradient>
				<path class="st23" d="M344.2,393.6c5.1,0.4,14,1.2,21,1.5c4.2,0.2,6.6-0.2,8-0.8c0,0.2,0,0.3,0,0.4c0,0.7-0.6,1.3-1.4,1.4
					c-13.2,0.7-23.7,0.3-27.5,0c-0.8,0-1.2-0.9-0.8-1.5C343.7,394.2,343.9,393.9,344.2,393.6z"/>
				<linearGradient id="SVGID_14_" gradientUnits="userSpaceOnUse" x1="445.2828" y1="367.1079" x2="337.1548" y2="397.927">
					<stop  offset="0" style="stop-color:#4F52FF"/>
					<stop  offset="1" style="stop-color:#4042E2"/>
				</linearGradient>
				<path class="st24" d="M365.2,395.1c-7-0.3-15.9-1-21-1.5c5-6.2,21-10.3,21-10.3h4.5c3.1,4.5,3.6,8.7,3.5,11
					C371.8,394.8,369.4,395.3,365.2,395.1z"/>
				
					<linearGradient id="SVGID_15_" gradientUnits="userSpaceOnUse" x1="1273.3109" y1="381.0232" x2="1281.7227" y2="381.0232" gradientTransform="matrix(-1 0 0 1 1643.7585 0)">
					<stop  offset="0" style="stop-color:#FEBBBA"/>
					<stop  offset="1" style="stop-color:#FF928E"/>
				</linearGradient>
				<path class="st25" d="M370.4,375.9l-0.4,8.3c0,0.9-0.7,1.7-1.6,1.8c-0.9,0.1-2.1,0.1-3.4-0.3c-0.8-0.3-1.4-0.9-1.5-1.7l-1.5-8.1
					H370.4z"/>
			</g>
			<g>
				<g>
					
						<linearGradient id="SVGID_16_" gradientUnits="userSpaceOnUse" x1="1211.0214" y1="394.4028" x2="1222.465" y2="394.4028" gradientTransform="matrix(-1 0 0 1 1643.7585 0)">
						<stop  offset="0" style="stop-color:#09005D"/>
						<stop  offset="1" style="stop-color:#1A0F91"/>
					</linearGradient>
					<path class="st26" d="M429,395c2.2-0.3,3.2-1.5,3.6-2.7c0,0,0,0,0,0c0.3,1.3-0.4,2.6-1.9,3.3c-1.8,0.8-3.8,0.9-5.4,0.8
						c-1.7-0.1-3.2-0.8-4-1.9l0,0C423,395.4,425.3,395.5,429,395z"/>
					<linearGradient id="SVGID_17_" gradientUnits="userSpaceOnUse" x1="385.0032" y1="360.844" x2="452.3873" y2="404.722">
						<stop  offset="0" style="stop-color:#4F52FF"/>
						<stop  offset="1" style="stop-color:#4042E2"/>
					</linearGradient>
					<path class="st27" d="M418.6,375.9h3.7c5.7-0.1,9.2,11.8,10.4,16.5c-0.4,1.2-1.4,2.4-3.6,2.7c-3.7,0.5-6,0.4-7.7-0.4
						c-3.1-4-4.6-9.9-5.3-13.4C415.2,377.3,418.6,375.9,418.6,375.9z"/>
				</g>
				
					<linearGradient id="SVGID_18_" gradientUnits="userSpaceOnUse" x1="1219.8354" y1="374.011" x2="1229.8881" y2="374.011" gradientTransform="matrix(-1 0 0 1 1643.7585 0)">
					<stop  offset="0" style="stop-color:#FEBBBA"/>
					<stop  offset="1" style="stop-color:#FF928E"/>
				</linearGradient>
				<path class="st28" d="M421.8,368.1l2.1,8.2c0.3,1-0.2,2-1.2,2.5c-1.2,0.6-2.8,1.2-4.3,1c-0.7-0.1-1.3-0.6-1.5-1.2l-3-8.6
					L421.8,368.1z"/>
			</g>
			<linearGradient id="SVGID_19_" gradientUnits="userSpaceOnUse" x1="378.8663" y1="231.2337" x2="389.515" y2="376.0542">
				<stop  offset="0" style="stop-color:#09005D"/>
				<stop  offset="1" style="stop-color:#1A0F91"/>
			</linearGradient>
			<path class="st29" d="M424.3,370.5c-2.6,2.3-10.9,2.6-10.9,2.6c-30.1-72.2-42.6-92.1-42.6-92.1c4.3,27.3,0.9,97.3,0.9,97.3
				c-5,2.2-11.4,0-11.4,0c-0.4-44.6-6.7-92.6-14.8-123.3c20.3-0.5,31.4-4.9,34.9-7.7C397.3,274.5,424.3,370.5,424.3,370.5z"/>
			<g>
				<linearGradient id="SVGID_20_" gradientUnits="userSpaceOnUse" x1="376.9221" y1="313.5381" x2="376.9221" y2="282.8456">
					<stop  offset="0" style="stop-color:#4F52FF"/>
					<stop  offset="1" style="stop-color:#4042E2"/>
				</linearGradient>
				<path class="st30" d="M340.3,275.1l3.7,23.3c0.7,4.1,4.4,6.9,8.5,6.4l56-6.8c2.7-0.3,4.8-2.6,4.9-5.4c0.1-6-0.1-16.7-2.6-26.5
					L340.3,275.1z"/>
				<path class="st2" d="M352.4,303.3C352.4,303.3,352.4,303.3,352.4,303.3c-0.5,0-0.9-0.1-1.4-0.2c-0.1,0-0.1-0.1-0.1-0.2
					c0-0.1,0.1-0.1,0.2-0.1c0.4,0.1,0.9,0.2,1.3,0.2c0.1,0,0.2,0.1,0.2,0.2C352.6,303.2,352.5,303.3,352.4,303.3z M355.5,303
					c-0.1,0-0.2-0.1-0.2-0.1c0-0.1,0.1-0.2,0.1-0.2l1.3-0.2c0.1,0,0.2,0.1,0.2,0.1c0,0.1-0.1,0.2-0.1,0.2L355.5,303
					C355.5,303,355.5,303,355.5,303z M359.9,302.5c-0.1,0-0.2-0.1-0.2-0.1c0-0.1,0.1-0.2,0.1-0.2l1.3-0.2c0.1,0,0.2,0.1,0.2,0.1
					c0,0.1-0.1,0.2-0.1,0.2L359.9,302.5C359.9,302.5,359.9,302.5,359.9,302.5z M364.3,302c-0.1,0-0.2-0.1-0.2-0.1
					c0-0.1,0.1-0.2,0.1-0.2l1.3-0.2c0.1,0,0.2,0.1,0.2,0.1c0,0.1-0.1,0.2-0.1,0.2L364.3,302C364.3,302,364.3,302,364.3,302z
					 M348.3,301.8c0,0-0.1,0-0.1,0c-0.4-0.3-0.7-0.6-1-0.9c-0.1-0.1-0.1-0.2,0-0.2c0.1-0.1,0.2-0.1,0.2,0c0.3,0.3,0.6,0.6,0.9,0.9
					c0.1,0.1,0.1,0.2,0,0.2C348.4,301.7,348.4,301.8,348.3,301.8z M368.7,301.4c-0.1,0-0.2-0.1-0.2-0.1c0-0.1,0.1-0.2,0.1-0.2
					l1.3-0.2c0.1,0,0.2,0.1,0.2,0.1c0,0.1-0.1,0.2-0.1,0.2L368.7,301.4C368.7,301.4,368.7,301.4,368.7,301.4z M373.1,300.9
					c-0.1,0-0.2-0.1-0.2-0.1c0-0.1,0.1-0.2,0.1-0.2l1.3-0.2c0.1,0,0.2,0.1,0.2,0.1c0,0.1-0.1,0.2-0.1,0.2L373.1,300.9
					C373.1,300.9,373.1,300.9,373.1,300.9z M377.5,300.4c-0.1,0-0.2-0.1-0.2-0.1c0-0.1,0.1-0.2,0.1-0.2l1.3-0.2
					c0.1,0,0.2,0.1,0.2,0.1c0,0.1-0.1,0.2-0.1,0.2L377.5,300.4C377.5,300.4,377.5,300.4,377.5,300.4z M381.9,299.8
					c-0.1,0-0.2-0.1-0.2-0.1c0-0.1,0.1-0.2,0.1-0.2l1.3-0.2c0.1,0,0.2,0.1,0.2,0.1c0,0.1-0.1,0.2-0.1,0.2L381.9,299.8
					C381.9,299.8,381.9,299.8,381.9,299.8z M386.3,299.3c-0.1,0-0.2-0.1-0.2-0.1c0-0.1,0.1-0.2,0.1-0.2l1.3-0.2
					c0.1,0,0.2,0.1,0.2,0.1c0,0.1-0.1,0.2-0.1,0.2L386.3,299.3C386.3,299.3,386.3,299.3,386.3,299.3z M390.6,298.7
					c-0.1,0-0.2-0.1-0.2-0.1c0-0.1,0.1-0.2,0.1-0.2l1.3-0.2c0.1,0,0.2,0.1,0.2,0.1c0,0.1-0.1,0.2-0.1,0.2L390.6,298.7
					C390.7,298.7,390.7,298.7,390.6,298.7z M395,298.2c-0.1,0-0.2-0.1-0.2-0.1c0-0.1,0.1-0.2,0.1-0.2l1.3-0.2c0.1,0,0.2,0.1,0.2,0.1
					c0,0.1-0.1,0.2-0.1,0.2L395,298.2C395.1,298.2,395,298.2,395,298.2z M345.8,298.2c-0.1,0-0.1,0-0.2-0.1c-0.1-0.3-0.2-0.7-0.2-1
					l0-0.3c0-0.1,0-0.2,0.1-0.2c0.1,0,0.2,0,0.2,0.1l0,0.3c0.1,0.3,0.1,0.7,0.2,1C346,298.1,346,298.1,345.8,298.2
					C345.9,298.2,345.9,298.2,345.8,298.2z M399.4,297.7c-0.1,0-0.2-0.1-0.2-0.1c0-0.1,0.1-0.2,0.1-0.2l1.3-0.2
					c0.1,0,0.2,0.1,0.2,0.1c0,0.1-0.1,0.2-0.1,0.2L399.4,297.7C399.4,297.7,399.4,297.7,399.4,297.7z M403.8,297.1
					c-0.1,0-0.2-0.1-0.2-0.1c0-0.1,0.1-0.2,0.1-0.2l1.3-0.2c0.1,0,0.2,0.1,0.2,0.1c0,0.1-0.1,0.2-0.1,0.2L403.8,297.1
					C403.8,297.1,403.8,297.1,403.8,297.1z M408.2,296.5c-0.1,0-0.1,0-0.2-0.1c0-0.1,0-0.2,0.1-0.2c0.4-0.1,0.8-0.3,1.1-0.6
					c0.1-0.1,0.2,0,0.2,0c0.1,0.1,0,0.2,0,0.2C409.1,296.1,408.7,296.3,408.2,296.5C408.2,296.5,408.2,296.5,408.2,296.5z
					 M345.1,293.8c-0.1,0-0.2-0.1-0.2-0.1l-0.2-1.3c0-0.1,0-0.2,0.1-0.2c0.1,0,0.2,0,0.2,0.1l0.2,1.3
					C345.3,293.7,345.2,293.8,345.1,293.8C345.1,293.8,345.1,293.8,345.1,293.8z M411.3,293.5C411.3,293.5,411.3,293.5,411.3,293.5
					c-0.1,0-0.2-0.1-0.2-0.2c0.2-0.4,0.3-0.8,0.3-1.2c0-0.1,0.1-0.2,0.2-0.1c0.1,0,0.2,0.1,0.1,0.2c-0.1,0.5-0.2,0.9-0.3,1.3
					C411.4,293.5,411.4,293.5,411.3,293.5z M344.4,289.5c-0.1,0-0.2-0.1-0.2-0.1L344,288c0-0.1,0-0.2,0.1-0.2c0.1,0,0.2,0,0.2,0.1
					l0.2,1.3C344.5,289.4,344.5,289.4,344.4,289.5C344.4,289.5,344.4,289.5,344.4,289.5z M411.7,289.1c-0.1,0-0.2-0.1-0.2-0.2
					c0-0.4,0-0.9,0-1.3c0-0.1,0.1-0.2,0.2-0.2c0.1,0,0.2,0.1,0.2,0.2c0,0.5,0,0.9,0,1.3C411.9,289,411.8,289.1,411.7,289.1
					L411.7,289.1z M343.7,285.1c-0.1,0-0.2-0.1-0.2-0.1l-0.2-1.3c0-0.1,0-0.2,0.1-0.2c0.1,0,0.2,0,0.2,0.1l0.2,1.3
					C343.8,285,343.8,285.1,343.7,285.1C343.7,285.1,343.7,285.1,343.7,285.1z M411.6,284.7c-0.1,0-0.2-0.1-0.2-0.2
					c0-0.4,0-0.9-0.1-1.3c0-0.1,0.1-0.2,0.2-0.2c0.1,0,0.2,0.1,0.2,0.2c0,0.5,0,0.9,0.1,1.3C411.8,284.6,411.7,284.7,411.6,284.7
					C411.6,284.7,411.6,284.7,411.6,284.7z M343,280.7c-0.1,0-0.2-0.1-0.2-0.1l-0.2-1.3c0-0.1,0-0.2,0.1-0.2c0.1,0,0.2,0,0.2,0.1
					l0.2,1.3C343.1,280.6,343.1,280.7,343,280.7C343,280.7,343,280.7,343,280.7z M411.3,280.3c-0.1,0-0.2-0.1-0.2-0.2
					c0-0.4-0.1-0.9-0.1-1.3c0-0.1,0.1-0.2,0.2-0.2c0.1,0,0.2,0.1,0.2,0.2c0,0.4,0.1,0.9,0.1,1.3
					C411.5,280.2,411.5,280.3,411.3,280.3C411.4,280.3,411.4,280.3,411.3,280.3z M342.3,276.3c-0.1,0-0.2-0.1-0.2-0.1l-0.2-1.3
					c0-0.1,0-0.2,0.1-0.2c0.1,0,0.2,0,0.2,0.1l0.2,1.3C342.4,276.2,342.4,276.3,342.3,276.3C342.3,276.3,342.3,276.3,342.3,276.3z
					 M410.9,275.9c-0.1,0-0.2-0.1-0.2-0.1c-0.1-0.4-0.1-0.9-0.2-1.3c0-0.1,0.1-0.2,0.1-0.2c0.1,0,0.2,0.1,0.2,0.1
					c0.1,0.4,0.1,0.9,0.2,1.3C411.1,275.8,411,275.8,410.9,275.9C410.9,275.9,410.9,275.9,410.9,275.9z M342.7,274.9
					c-0.1,0-0.2-0.1-0.2-0.1c0-0.1,0.1-0.2,0.1-0.2l1.3-0.2c0.1,0,0.2,0.1,0.2,0.1c0,0.1-0.1,0.2-0.1,0.2L342.7,274.9
					C342.7,274.9,342.7,274.9,342.7,274.9z M347.1,274.4c-0.1,0-0.2-0.1-0.2-0.1c0-0.1,0.1-0.2,0.1-0.2l1.3-0.2
					c0.1,0,0.2,0.1,0.2,0.1c0,0.1-0.1,0.2-0.1,0.2L347.1,274.4C347.1,274.4,347.1,274.4,347.1,274.4z M351.5,273.8
					c-0.1,0-0.2-0.1-0.2-0.1c0-0.1,0.1-0.2,0.1-0.2l1.3-0.2c0.1,0,0.2,0.1,0.2,0.1c0,0.1-0.1,0.2-0.1,0.2L351.5,273.8
					C351.5,273.8,351.5,273.8,351.5,273.8z M355.9,273.3c-0.1,0-0.2-0.1-0.2-0.1c0-0.1,0.1-0.2,0.1-0.2l1.3-0.2
					c0.1,0,0.2,0.1,0.2,0.1c0,0.1-0.1,0.2-0.1,0.2L355.9,273.3C355.9,273.3,355.9,273.3,355.9,273.3z M360.3,272.7
					c-0.1,0-0.2-0.1-0.2-0.1c0-0.1,0.1-0.2,0.1-0.2l1.3-0.2c0.1,0,0.2,0.1,0.2,0.1c0,0.1-0.1,0.2-0.1,0.2L360.3,272.7
					C360.3,272.7,360.3,272.7,360.3,272.7z M364.6,272.1c-0.1,0-0.2-0.1-0.2-0.1c0-0.1,0.1-0.2,0.1-0.2l1.3-0.2
					c0.1,0,0.2,0.1,0.2,0.1c0,0.1-0.1,0.2-0.1,0.2L364.6,272.1C364.7,272.1,364.7,272.1,364.6,272.1z M369,271.6
					c-0.1,0-0.2-0.1-0.2-0.1c0-0.1,0.1-0.2,0.1-0.2l1.3-0.2c0.1,0,0.2,0.1,0.2,0.1c0,0.1-0.1,0.2-0.1,0.2L369,271.6
					C369.1,271.6,369,271.6,369,271.6z M410.2,271.5c-0.1,0-0.1-0.1-0.2-0.1c-0.1-0.4-0.2-0.9-0.2-1.3c0-0.1,0-0.2,0.1-0.2
					c0.1,0,0.2,0,0.2,0.1c0.1,0.4,0.2,0.9,0.2,1.3C410.4,271.4,410.4,271.5,410.2,271.5C410.3,271.5,410.3,271.5,410.2,271.5z
					 M373.4,271c-0.1,0-0.2-0.1-0.2-0.1c0-0.1,0.1-0.2,0.1-0.2l1.3-0.2c0.1,0,0.2,0.1,0.2,0.1c0,0.1-0.1,0.2-0.1,0.2L373.4,271
					C373.4,271,373.4,271,373.4,271z M377.8,270.5c-0.1,0-0.2-0.1-0.2-0.1c0-0.1,0.1-0.2,0.1-0.2l1.3-0.2c0.1,0,0.2,0.1,0.2,0.1
					c0,0.1-0.1,0.2-0.1,0.2L377.8,270.5C377.8,270.5,377.8,270.5,377.8,270.5z M382.2,269.9c-0.1,0-0.2-0.1-0.2-0.1
					c0-0.1,0.1-0.2,0.1-0.2l1.3-0.2c0.1,0,0.2,0.1,0.2,0.1c0,0.1-0.1,0.2-0.1,0.2L382.2,269.9C382.2,269.9,382.2,269.9,382.2,269.9z
					 M386.6,269.3c-0.1,0-0.2-0.1-0.2-0.1c0-0.1,0.1-0.2,0.1-0.2l1.3-0.2c0.1,0,0.2,0.1,0.2,0.1c0,0.1-0.1,0.2-0.1,0.2L386.6,269.3
					C386.6,269.3,386.6,269.3,386.6,269.3z M391,268.8c-0.1,0-0.2-0.1-0.2-0.1c0-0.1,0.1-0.2,0.1-0.2l1.3-0.2c0.1,0,0.2,0.1,0.2,0.1
					c0,0.1-0.1,0.2-0.1,0.2L391,268.8C391,268.8,391,268.8,391,268.8z M395.4,268.2c-0.1,0-0.2-0.1-0.2-0.1c0-0.1,0.1-0.2,0.1-0.2
					l1.3-0.2c0.1,0,0.2,0.1,0.2,0.1c0,0.1-0.1,0.2-0.1,0.2L395.4,268.2C395.4,268.2,395.4,268.2,395.4,268.2z M399.8,267.6
					c-0.1,0-0.2-0.1-0.2-0.1c0-0.1,0.1-0.2,0.1-0.2l1.3-0.2c0.1,0,0.2,0.1,0.2,0.1c0,0.1-0.1,0.2-0.1,0.2L399.8,267.6
					C399.8,267.6,399.8,267.6,399.8,267.6z M409.3,267.1c-0.1,0-0.1-0.1-0.2-0.1c0-0.2-0.1-0.4-0.1-0.6l-0.4,0.1
					c-0.1,0-0.2-0.1-0.2-0.1c0-0.1,0.1-0.2,0.1-0.2l0.7-0.1l0,0.1c0.1,0.2,0.1,0.5,0.2,0.7C409.5,267,409.5,267.1,409.3,267.1
					C409.4,267.1,409.3,267.1,409.3,267.1z M404.2,267.1c-0.1,0-0.2-0.1-0.2-0.1c0-0.1,0.1-0.2,0.1-0.2l1.3-0.2
					c0.1,0,0.2,0.1,0.2,0.1c0,0.1-0.1,0.2-0.1,0.2L404.2,267.1C404.2,267.1,404.2,267.1,404.2,267.1z"/>
				
					<linearGradient id="SVGID_21_" gradientUnits="userSpaceOnUse" x1="-1434.7134" y1="47.8748" x2="-1448.9723" y2="69.6256" gradientTransform="matrix(0.9919 -0.127 0.127 0.9919 2187.8403 -820.5036)">
					<stop  offset="0" style="stop-color:#4F52FF"/>
					<stop  offset="1" style="stop-color:#4042E2"/>
				</linearGradient>
				<path class="st31" d="M354.6,256l-0.1-1.8c0.1-0.5,0.5-0.8,0.9-0.9c1.7-0.5,6-1.5,8.3-0.3l0.6,2.1L354.6,256z"/>
				
					<linearGradient id="SVGID_22_" gradientUnits="userSpaceOnUse" x1="-1436.9169" y1="46.4036" x2="-1451.1761" y2="68.1549" gradientTransform="matrix(0.9919 -0.127 0.127 0.9919 2187.8403 -820.5036)">
					<stop  offset="0" style="stop-color:#4F52FF"/>
					<stop  offset="1" style="stop-color:#4042E2"/>
				</linearGradient>
				<path class="st32" d="M359.8,253.6c-0.4,0.1-0.8,0.2-1.2,0.2c-0.5-0.1-0.9-0.4-1-0.9l-0.7-5.6l2.9-0.4l0.7,5.6
					C360.6,252.9,360.3,253.4,359.8,253.6z"/>
				
					<linearGradient id="SVGID_23_" gradientUnits="userSpaceOnUse" x1="-1415.0906" y1="60.7389" x2="-1429.3495" y2="82.4897" gradientTransform="matrix(0.9919 -0.127 0.127 0.9919 2187.8403 -820.5036)">
					<stop  offset="0" style="stop-color:#4F52FF"/>
					<stop  offset="1" style="stop-color:#4042E2"/>
				</linearGradient>
				<path class="st33" d="M382.4,252.5l-0.1-1.8c0.1-0.5,0.5-0.8,0.9-0.9c1.7-0.5,6-1.5,8.3-0.3l0.6,2.1L382.4,252.5z"/>
				
					<linearGradient id="SVGID_24_" gradientUnits="userSpaceOnUse" x1="-1417.4314" y1="59.1774" x2="-1431.6906" y2="80.9288" gradientTransform="matrix(0.9919 -0.127 0.127 0.9919 2187.8403 -820.5036)">
					<stop  offset="0" style="stop-color:#4F52FF"/>
					<stop  offset="1" style="stop-color:#4042E2"/>
				</linearGradient>
				<path class="st34" d="M387.6,250c-0.4,0.1-0.8,0.2-1.2,0.2c-0.5-0.1-0.9-0.4-1-0.9l-0.8-6.2l2.9-0.4l0.8,6.2
					C388.4,249.4,388.1,249.8,387.6,250z"/>
				
					<linearGradient id="SVGID_25_" gradientUnits="userSpaceOnUse" x1="-1429.4347" y1="51.3324" x2="-1443.6936" y2="73.0831" gradientTransform="matrix(0.9919 -0.127 0.127 0.9919 2187.8403 -820.5036)">
					<stop  offset="0" style="stop-color:#4F52FF"/>
					<stop  offset="1" style="stop-color:#4042E2"/>
				</linearGradient>
				<path class="st35" d="M356.8,248.6l30.8-5c0.7-0.1,1.2-0.7,1.3-1.4c0-1,0-2.5-0.4-3.9c-0.5-1.7-2.1-2.8-3.8-2.6
					c-5.8,0.6-20.5,2.5-28.1,6.7c-0.8,0.4-1.4,1.3-1.5,2.2c-0.1,0.9-0.1,2,0.3,3.1C355.5,248.3,356.2,248.7,356.8,248.6z"/>
				<path class="st1" d="M356,247.3c-0.2,0-0.4-0.1-0.4-0.3c0-0.1-0.3-1.3-0.1-2.5c0.1-1,0.8-1.8,1.7-2.2c1.7-0.7,4.9-2,7.6-2.4
					c0.2,0,0.5,0.1,0.5,0.4c0,0.2-0.1,0.5-0.4,0.5c-2.7,0.4-6.1,1.8-7.4,2.4c-0.6,0.3-1.1,0.9-1.2,1.6c-0.1,1.1,0.1,2.1,0.1,2.1
					c0.1,0.2-0.1,0.5-0.3,0.5C356.1,247.3,356.1,247.3,356,247.3z"/>
				
					<linearGradient id="SVGID_26_" gradientUnits="userSpaceOnUse" x1="-1933.3373" y1="824.5414" x2="-1943.5966" y2="920.2943" gradientTransform="matrix(0.9919 -0.127 0.127 0.9919 2187.8403 -820.5036)">
					<stop  offset="0" style="stop-color:#4F52FF"/>
					<stop  offset="1" style="stop-color:#4042E2"/>
				</linearGradient>
				<path class="st36" d="M340.1,257.1c10-1.4,53.1-7.4,65.8-7.5c1.1,0,2.1,0.7,2.4,1.7c1.2,3.3,3.7,10.8,4.5,18.6
					c0.1,1.1-0.5,2-1.6,2.4l-27.9,9.1l-10.2,1.3l-31.3-2.2c-1.1-0.1-2-0.9-2.2-2c-0.7-3.9-2.2-12.9-1.9-18.9
					C337.9,258.4,338.9,257.3,340.1,257.1z"/>
				<path class="st2" d="M373.2,280.4l-1.4-0.1c-0.1,0-0.2-0.1-0.2-0.2c0-0.1,0.1-0.2,0.2-0.2l1.3,0.1l0.1,0c0.1,0,0.2,0.1,0.2,0.1
					c0,0.1-0.1,0.2-0.1,0.2L373.2,280.4z M368.7,280.1C368.7,280.1,368.7,280.1,368.7,280.1l-1.3-0.1c-0.1,0-0.2-0.1-0.2-0.2
					c0-0.1,0.1-0.2,0.2-0.2l1.3,0.1c0.1,0,0.2,0.1,0.2,0.2C368.9,280,368.8,280.1,368.7,280.1z M376.4,280c-0.1,0-0.2-0.1-0.2-0.1
					c0-0.1,0.1-0.2,0.1-0.2l1.3-0.2c0.1,0,0.2,0.1,0.2,0.1c0,0.1-0.1,0.2-0.1,0.2L376.4,280C376.4,280,376.4,280,376.4,280z
					 M364.3,279.8C364.3,279.8,364.3,279.8,364.3,279.8l-1.3-0.1c-0.1,0-0.2-0.1-0.2-0.2c0-0.1,0.1-0.2,0.2-0.2l1.3,0.1
					c0.1,0,0.2,0.1,0.2,0.2C364.5,279.7,364.4,279.8,364.3,279.8z M359.9,279.5C359.9,279.5,359.9,279.5,359.9,279.5l-1.3-0.1
					c-0.1,0-0.2-0.1-0.2-0.2c0-0.1,0.1-0.2,0.2-0.2l1.3,0.1c0.1,0,0.2,0.1,0.2,0.2C360.1,279.4,360,279.5,359.9,279.5z M380.8,279.4
					c-0.1,0-0.2-0.1-0.2-0.1c0-0.1,0.1-0.2,0.1-0.2l1.3-0.2c0.1,0,0.2,0.1,0.2,0.1c0,0.1-0.1,0.2-0.1,0.2L380.8,279.4
					C380.8,279.4,380.8,279.4,380.8,279.4z M355.5,279.1C355.5,279.1,355.5,279.1,355.5,279.1l-1.3-0.1c-0.1,0-0.2-0.1-0.2-0.2
					c0-0.1,0.1-0.2,0.2-0.2l1.3,0.1c0.1,0,0.2,0.1,0.2,0.2C355.6,279.1,355.6,279.1,355.5,279.1z M351.1,278.8
					C351.1,278.8,351.1,278.8,351.1,278.8l-1.3-0.1c-0.1,0-0.2-0.1-0.2-0.2c0-0.1,0.1-0.2,0.2-0.2l1.3,0.1c0.1,0,0.2,0.1,0.2,0.2
					C351.2,278.8,351.1,278.8,351.1,278.8z M346.6,278.5C346.6,278.5,346.6,278.5,346.6,278.5l-1.3-0.1c-0.1,0-0.2-0.1-0.2-0.2
					c0-0.1,0.1-0.2,0.2-0.2l1.3,0.1c0.1,0,0.2,0.1,0.2,0.2C346.8,278.5,346.7,278.5,346.6,278.5z M385.1,278.4c-0.1,0-0.1,0-0.2-0.1
					c0-0.1,0-0.2,0.1-0.2l1.3-0.4c0.1,0,0.2,0,0.2,0.1c0,0.1,0,0.2-0.1,0.2L385.1,278.4C385.1,278.4,385.1,278.4,385.1,278.4z
					 M342.2,278.2C342.2,278.2,342.2,278.2,342.2,278.2l-0.2,0l0-0.1c-0.1-0.4-0.1-0.8-0.2-1.2c0-0.1,0-0.2,0.1-0.2
					c0.1,0,0.2,0,0.2,0.1c0.1,0.4,0.1,0.8,0.2,1.1c0.1,0,0.1,0.1,0.1,0.2C342.4,278.2,342.3,278.2,342.2,278.2z M389.3,277
					c-0.1,0-0.1,0-0.2-0.1c0-0.1,0-0.2,0.1-0.2l1.3-0.4c0.1,0,0.2,0,0.2,0.1c0,0.1,0,0.2-0.1,0.2L389.3,277
					C389.3,277,389.3,277,389.3,277z M393.5,275.7c-0.1,0-0.1,0-0.2-0.1c0-0.1,0-0.2,0.1-0.2l1.3-0.4c0.1,0,0.2,0,0.2,0.1
					c0,0.1,0,0.2-0.1,0.2L393.5,275.7C393.5,275.7,393.5,275.7,393.5,275.7z M397.7,274.3c-0.1,0-0.1,0-0.2-0.1c0-0.1,0-0.2,0.1-0.2
					l1.3-0.4c0.1,0,0.2,0,0.2,0.1c0,0.1,0,0.2-0.1,0.2L397.7,274.3C397.7,274.3,397.7,274.3,397.7,274.3z M341.4,273.9
					c-0.1,0-0.2-0.1-0.2-0.1c-0.1-0.4-0.1-0.9-0.2-1.3c0-0.1,0.1-0.2,0.1-0.2c0.1,0,0.2,0.1,0.2,0.1c0.1,0.4,0.1,0.9,0.2,1.3
					C341.6,273.8,341.6,273.9,341.4,273.9C341.5,273.9,341.5,273.9,341.4,273.9z M401.9,272.9c-0.1,0-0.1,0-0.2-0.1
					c0-0.1,0-0.2,0.1-0.2l1.3-0.4c0.1,0,0.2,0,0.2,0.1c0,0.1,0,0.2-0.1,0.2L401.9,272.9C402,272.9,401.9,272.9,401.9,272.9z
					 M406.1,271.6c-0.1,0-0.1,0-0.2-0.1c0-0.1,0-0.2,0.1-0.2l1.3-0.4c0.1,0,0.2,0,0.2,0.1c0,0.1,0,0.2-0.1,0.2L406.1,271.6
					C406.2,271.6,406.1,271.6,406.1,271.6z M410.3,270.2c-0.1,0-0.1,0-0.2-0.1c0-0.1,0-0.1,0-0.2c0-0.4-0.1-0.8-0.1-1.1
					c0-0.1,0.1-0.2,0.1-0.2c0.1,0,0.2,0.1,0.2,0.1c0.1,0.4,0.1,0.8,0.2,1.3l0,0.1L410.3,270.2C410.4,270.2,410.4,270.2,410.3,270.2z
					 M340.9,269.5c-0.1,0-0.2-0.1-0.2-0.1c-0.1-0.4-0.1-0.9-0.1-1.3c0-0.1,0.1-0.2,0.1-0.2c0.1,0,0.2,0.1,0.2,0.1
					c0,0.4,0.1,0.9,0.1,1.3C341,269.4,341,269.5,340.9,269.5C340.9,269.5,340.9,269.5,340.9,269.5z M409.7,265.8
					c-0.1,0-0.1-0.1-0.2-0.1c-0.1-0.4-0.2-0.9-0.3-1.3c0-0.1,0-0.2,0.1-0.2c0.1,0,0.2,0,0.2,0.1c0.1,0.4,0.2,0.9,0.3,1.3
					C409.9,265.7,409.9,265.8,409.7,265.8C409.8,265.8,409.8,265.8,409.7,265.8z M340.4,265.1c-0.1,0-0.2-0.1-0.2-0.2
					c0-0.4-0.1-0.9-0.1-1.3c0-0.1,0.1-0.2,0.2-0.2c0,0,0,0,0,0c0.1,0,0.2,0.1,0.2,0.2c0,0.4,0,0.9,0.1,1.3
					C340.6,265,340.5,265.1,340.4,265.1C340.4,265.1,340.4,265.1,340.4,265.1z M408.8,261.5c-0.1,0-0.1-0.1-0.2-0.1
					c-0.1-0.4-0.2-0.9-0.3-1.3c0-0.1,0-0.2,0.1-0.2c0.1,0,0.2,0,0.2,0.1c0.1,0.4,0.2,0.9,0.3,1.3C409,261.4,408.9,261.5,408.8,261.5
					C408.8,261.5,408.8,261.5,408.8,261.5z M340.3,260.7C340.3,260.7,340.3,260.7,340.3,260.7c-0.1,0-0.2-0.1-0.2-0.2
					c0-0.3,0-0.5,0-0.8c0-0.2,0.1-0.3,0.3-0.3l0.3,0c0.1,0,0.2,0.1,0.2,0.1c0,0.1-0.1,0.2-0.1,0.2l-0.3,0c0,0.3,0,0.5,0,0.8
					C340.5,260.6,340.4,260.7,340.3,260.7z M343.9,259.3c-0.1,0-0.2-0.1-0.2-0.1c0-0.1,0.1-0.2,0.1-0.2l1.3-0.2
					c0.1,0,0.2,0.1,0.2,0.1c0,0.1-0.1,0.2-0.1,0.2L343.9,259.3C343.9,259.3,343.9,259.3,343.9,259.3z M348.3,258.7
					c-0.1,0-0.2-0.1-0.2-0.1c0-0.1,0.1-0.2,0.1-0.2l1.3-0.2c0.1,0,0.2,0.1,0.2,0.1c0,0.1-0.1,0.2-0.1,0.2L348.3,258.7
					C348.3,258.7,348.3,258.7,348.3,258.7z M352.7,258.1c-0.1,0-0.2-0.1-0.2-0.1c0-0.1,0.1-0.2,0.1-0.2l1.3-0.2
					c0.1,0,0.2,0.1,0.2,0.1c0,0.1-0.1,0.2-0.1,0.2L352.7,258.1C352.7,258.1,352.7,258.1,352.7,258.1z M357,257.5
					c-0.1,0-0.2-0.1-0.2-0.1c0-0.1,0.1-0.2,0.1-0.2l1.3-0.2c0.1,0,0.2,0.1,0.2,0.1c0,0.1-0.1,0.2-0.1,0.2L357,257.5
					C357.1,257.5,357.1,257.5,357,257.5z M407.7,257.2c-0.1,0-0.1,0-0.2-0.1c-0.1-0.4-0.3-0.9-0.4-1.3c0-0.1,0-0.2,0.1-0.2
					c0.1,0,0.2,0,0.2,0.1c0.1,0.4,0.3,0.8,0.4,1.3C407.9,257.1,407.8,257.2,407.7,257.2C407.7,257.2,407.7,257.2,407.7,257.2z
					 M361.4,256.9c-0.1,0-0.2-0.1-0.2-0.1c0-0.1,0.1-0.2,0.1-0.2l1.3-0.2c0.1,0,0.2,0.1,0.2,0.1c0,0.1-0.1,0.2-0.1,0.2L361.4,256.9
					C361.5,256.9,361.4,256.9,361.4,256.9z M365.8,256.4c-0.1,0-0.2-0.1-0.2-0.1c0-0.1,0.1-0.2,0.1-0.2l1.3-0.2
					c0.1,0,0.2,0.1,0.2,0.1c0,0.1-0.1,0.2-0.1,0.2L365.8,256.4C365.8,256.4,365.8,256.4,365.8,256.4z M370.2,255.8
					c-0.1,0-0.2-0.1-0.2-0.1c0-0.1,0.1-0.2,0.1-0.2l1.3-0.2c0.1,0,0.2,0.1,0.2,0.1c0,0.1-0.1,0.2-0.1,0.2L370.2,255.8
					C370.2,255.8,370.2,255.8,370.2,255.8z M374.6,255.3c-0.1,0-0.2-0.1-0.2-0.1c0-0.1,0.1-0.2,0.1-0.2l1.3-0.2
					c0.1,0,0.2,0.1,0.2,0.1c0,0.1-0.1,0.2-0.1,0.2L374.6,255.3C374.6,255.3,374.6,255.3,374.6,255.3z M379,254.7
					c-0.1,0-0.2-0.1-0.2-0.1c0-0.1,0.1-0.2,0.1-0.2l1.3-0.2c0.1,0,0.2,0.1,0.2,0.1c0,0.1-0.1,0.2-0.1,0.2L379,254.7
					C379,254.7,379,254.7,379,254.7z M383.4,254.2c-0.1,0-0.2-0.1-0.2-0.1c0-0.1,0.1-0.2,0.1-0.2l1.3-0.1c0.1,0,0.2,0.1,0.2,0.1
					c0,0.1-0.1,0.2-0.1,0.2L383.4,254.2C383.4,254.2,383.4,254.2,383.4,254.2z M387.8,253.7c-0.1,0-0.2-0.1-0.2-0.1
					c0-0.1,0.1-0.2,0.1-0.2l1.3-0.1c0.1,0,0.2,0.1,0.2,0.1c0,0.1-0.1,0.2-0.1,0.2L387.8,253.7C387.8,253.7,387.8,253.7,387.8,253.7z
					 M392.2,253.3c-0.1,0-0.2-0.1-0.2-0.1c0-0.1,0.1-0.2,0.1-0.2c0.4,0,0.9-0.1,1.3-0.1c0.1,0,0.2,0.1,0.2,0.1
					c0,0.1-0.1,0.2-0.1,0.2C393.1,253.2,392.7,253.2,392.2,253.3C392.2,253.3,392.2,253.3,392.2,253.3z M406.3,253
					c-0.1,0-0.1,0-0.2-0.1c-0.1-0.2-0.1-0.4-0.2-0.6c-0.2,0-0.3,0-0.5,0c-0.1,0-0.2-0.1-0.2-0.2c0-0.1,0.1-0.2,0.2-0.2
					c0.2,0,0.4,0,0.5,0c0.1,0,0.2,0.1,0.2,0.2c0.1,0.2,0.2,0.4,0.2,0.7C406.5,252.9,406.4,253,406.3,253
					C406.3,253,406.3,253,406.3,253z M396.6,252.9c-0.1,0-0.2-0.1-0.2-0.2c0-0.1,0.1-0.2,0.2-0.2c0.5,0,0.9-0.1,1.3-0.1
					c0.1,0,0.2,0.1,0.2,0.2c0,0.1-0.1,0.2-0.2,0.2C397.5,252.8,397.1,252.8,396.6,252.9C396.6,252.9,396.6,252.9,396.6,252.9z
					 M401,252.5c-0.1,0-0.2-0.1-0.2-0.2c0-0.1,0.1-0.2,0.2-0.2c0.5,0,0.9-0.1,1.3-0.1c0.1,0,0.2,0.1,0.2,0.2c0,0.1-0.1,0.2-0.2,0.2
					C402,252.5,401.5,252.5,401,252.5C401,252.5,401,252.5,401,252.5z"/>
				<linearGradient id="SVGID_27_" gradientUnits="userSpaceOnUse" x1="449.5531" y1="189.3607" x2="399.285" y2="252.1958">
					<stop  offset="0" style="stop-color:#09005D"/>
					<stop  offset="1" style="stop-color:#1A0F91"/>
				</linearGradient>
				<path class="st37" d="M383,285.8l-8.9,1.1c-1.2,0.1-2.3-0.6-2.5-1.7l-2.1-8.4c-0.3-1.3,0.6-2.7,2-2.9l10.7-1.4
					c1.4-0.2,2.6,0.8,2.6,2.2l0.3,8.7C385.1,284.6,384.2,285.6,383,285.8z"/>
				<linearGradient id="SVGID_28_" gradientUnits="userSpaceOnUse" x1="429.2686" y1="197.3359" x2="384.3172" y2="268.6296">
					<stop  offset="0" style="stop-color:#4F52FF"/>
					<stop  offset="1" style="stop-color:#4042E2"/>
				</linearGradient>
				<path class="st38" d="M381.7,284.4l-6.8,0.9c-0.9,0.1-1.7-0.5-1.9-1.3l-1.6-6.4c-0.3-1,0.4-2,1.5-2.2l8.1-1c1-0.1,2,0.6,2,1.7
					l0.3,6.6C383.3,283.5,382.6,284.2,381.7,284.4z"/>
			</g>
			<linearGradient id="SVGID_29_" gradientUnits="userSpaceOnUse" x1="409.0608" y1="127.3272" x2="372.144" y2="250.3835">
				<stop  offset="0" style="stop-color:#FEBBBA"/>
				<stop  offset="1" style="stop-color:#FF928E"/>
			</linearGradient>
			<path class="st39" d="M376.4,216c2.1,8.7,2.2,17.2,1.8,20.3c-0.1,1.2-1.1,2.1-2.2,2.2c-1.3,0.1-3.1,0.2-4.8,0.3
				c-1.8,0.1-3.7-1-5.1-2c-0.7-0.5-1.5,0.3-1.2,1c0.6,1.3,1.8,2.3,2.9,3.1c0.7,0.5,2.9,1.4,2.7,2.4c0,0.3-0.2,0.6-0.4,0.8
				c-1.2,1.5-3.1,2.3-5,2.9c-0.2,0.1-0.5,0.1-0.6,0.3c0,1.2,3.6,2.5,4.6,2.8c1.4,0.5,2.9,0.7,4.4,0.5c3.7-0.4,7.1-2.9,9.1-6
				c5.3-8.2,8.1-18.2,9.1-25.8C386.9,213.9,379.4,215.2,376.4,216z"/>
			<g>
				<linearGradient id="SVGID_30_" gradientUnits="userSpaceOnUse" x1="412.2461" y1="117.7787" x2="350.3776" y2="257.9494">
					<stop  offset="0" style="stop-color:#FF928E"/>
					<stop  offset="1" style="stop-color:#FE7062"/>
				</linearGradient>
				<path class="st40" d="M391.8,219.6c4-29.9-19.1-52.9-19.1-52.9l-13.7,16c10.4,13,15.4,24.9,17.6,34.2
					C379.7,216.1,386.9,214.7,391.8,219.6z"/>
				<linearGradient id="SVGID_31_" gradientUnits="userSpaceOnUse" x1="474.5279" y1="71.4532" x2="365.2921" y2="201.4726">
					<stop  offset="0" style="stop-color:#FF928E"/>
					<stop  offset="1" style="stop-color:#FE7062"/>
				</linearGradient>
				<path class="st41" d="M376.3,216.8c-0.4,0-0.7-0.3-0.8-0.6c-2.8-11.5-8.7-22.9-17.5-33.9c-0.3-0.4-0.2-0.9,0.1-1.2
					c0.4-0.3,0.9-0.2,1.2,0.1c9,11.2,14.9,22.8,17.8,34.6c0.1,0.5-0.2,0.9-0.6,1C376.5,216.8,376.4,216.8,376.3,216.8z"/>
			</g>
		</g>
		<g>
			<g>
				
					<linearGradient id="SVGID_32_" gradientUnits="userSpaceOnUse" x1="-1119.1642" y1="387.1917" x2="-1099.5743" y2="387.1917" gradientTransform="matrix(1 0 0 1 1290.1023 0)">
					<stop  offset="0" style="stop-color:#09005D"/>
					<stop  offset="1" style="stop-color:#1A0F91"/>
				</linearGradient>
				<path class="st42" d="M190.5,394.2c0-0.1,0-0.3,0-0.4c-2.2-8.7-13.2-14.2-13.2-14.2l-4.3,0.3c-2.5,7.7-2.2,12.4-1.8,14.5
					c0,0.1,0,0.1,0,0.2C174.8,394.9,182.2,395.1,190.5,394.2z"/>
				
					<linearGradient id="SVGID_33_" gradientUnits="userSpaceOnUse" x1="-1070.1219" y1="364.0812" x2="-1141.3906" y2="420.0415" gradientTransform="matrix(1 0 0 1 1290.1023 0)">
					<stop  offset="0" style="stop-color:#4F52FF"/>
					<stop  offset="1" style="stop-color:#4042E2"/>
				</linearGradient>
				<path class="st43" d="M171.3,394.6c0.2,0.7,0.7,1.3,1.4,1.4c5.1,1.1,13.2,0.2,16.6-0.2c0.7-0.1,1.3-0.8,1.3-1.6
					C182.2,395.1,174.8,394.9,171.3,394.6z"/>
				
					<linearGradient id="SVGID_34_" gradientUnits="userSpaceOnUse" x1="-1113.7164" y1="364.8895" x2="-1117.4585" y2="397.5471" gradientTransform="matrix(1 0 0 1 1290.1023 0)">
					<stop  offset="0" style="stop-color:#FEBBBA"/>
					<stop  offset="1" style="stop-color:#FF928E"/>
				</linearGradient>
				<path class="st44" d="M171.2,373.4l1.8,8.8c0.1,0.6,0.6,1.1,1.2,1.2c0.7,0.1,1.8,0.1,2.8,0c0.9-0.1,1.6-1.1,1.4-2.1l-1.3-7.9
					H171.2z"/>
				
					<linearGradient id="SVGID_35_" gradientUnits="userSpaceOnUse" x1="-1057.4614" y1="380.1818" x2="-1128.7302" y2="436.1422" gradientTransform="matrix(1 0 0 1 1290.1023 0)">
					<stop  offset="0" style="stop-color:#4F52FF"/>
					<stop  offset="1" style="stop-color:#4042E2"/>
				</linearGradient>
				<path class="st45" d="M209.3,394.5c-4.8-0.1-7.3-0.7-8.6-1.2c0,0.5,0,1,0,1.5c0,0.5,0.4,1,0.9,1l26.3-0.2c0.8,0,1.3-1,1-1.7
					C225.5,394,216.7,394.7,209.3,394.5z"/>
				
					<linearGradient id="SVGID_36_" gradientUnits="userSpaceOnUse" x1="-1089.3341" y1="387.6896" x2="-1061.1346" y2="387.6896" gradientTransform="matrix(1 0 0 1 1290.1023 0)">
					<stop  offset="0" style="stop-color:#09005D"/>
					<stop  offset="1" style="stop-color:#1A0F91"/>
				</linearGradient>
				<path class="st46" d="M229,393.8c0-0.1-0.1-0.1-0.1-0.2c-2.3-3.2-8.2-9.7-19.9-12.5l-5.6-0.2c0,0-2.5,4.3-2.5,12.4
					c1.3,0.5,3.8,1.1,8.6,1.2C216.7,394.7,225.5,394,229,393.8z"/>
				
					<linearGradient id="SVGID_37_" gradientUnits="userSpaceOnUse" x1="-911.6201" y1="347.0498" x2="-915.3622" y2="379.7079" gradientTransform="matrix(0.998 -6.290000e-02 6.290000e-02 0.998 1094.3241 -35.3578)">
					<stop  offset="0" style="stop-color:#FEBBBA"/>
					<stop  offset="1" style="stop-color:#FF928E"/>
				</linearGradient>
				<path class="st47" d="M202,372.6c0.1,0.4,1.3,6.7,1.7,9.2c0.1,0.6,0.6,1,1.1,1c1,0.1,2.5,0.1,3.8-0.3c0.7-0.2,1.2-0.9,1.2-1.7
					l-0.6-10L202,372.6z"/>
				<linearGradient id="SVGID_38_" gradientUnits="userSpaceOnUse" x1="158.4124" y1="412.2726" x2="205.2682" y2="250.4066">
					<stop  offset="0" style="stop-color:#09005D"/>
					<stop  offset="1" style="stop-color:#1A0F91"/>
				</linearGradient>
				<path class="st48" d="M197.8,256.4c0,0,7.7,53,13.3,116.2c0.1,1.2-0.8,2.2-2,2.4c-1.7,0.4-4.2,0.8-6.3,0.7c-1.1,0-2-0.9-2.2-1.9
					c-1.9-11.1-15.4-70.8-19-84c0,0-4.1,55.8-2.8,84.8c0,0.7-0.5,1.3-1.2,1.4c-1.1,0.1-2.8,0.2-5,0c-0.8-0.1-1.5-0.7-1.6-1.6
					c-1.4-9.4-9.1-65.5-8.8-105.9c0-2.3,2.7-21,2.7-21L197.8,256.4z"/>
			</g>
			
				<linearGradient id="SVGID_39_" gradientUnits="userSpaceOnUse" x1="-496.528" y1="-112.2284" x2="-600.9312" y2="13.442" gradientTransform="matrix(0.991 -0.1339 0.1339 0.991 898.4775 -65.3164)">
				<stop  offset="0" style="stop-color:#FF928E"/>
				<stop  offset="1" style="stop-color:#FE7062"/>
			</linearGradient>
			<path class="st49" d="M163.6,259.4c-0.8-0.3-1.3-1-1.4-1.8c-1-10-6-71.7,25.4-97.1c0,0,1.8-4.7,16.6,6.9
				c14.8,11.6,6.9,23.7,3.3,40.4c-4.3,20.2-11.8,36.8-8.5,49.2c0.2,0.9-0.2,1.8-1.1,2.1C186.5,263.3,175,263.5,163.6,259.4z"/>
			
				<linearGradient id="SVGID_40_" gradientUnits="userSpaceOnUse" x1="-1098.7882" y1="174.5465" x2="-1090.0974" y2="150.8138" gradientTransform="matrix(1 0 0 1 1290.1023 0)">
				<stop  offset="0" style="stop-color:#FEBBBA"/>
				<stop  offset="1" style="stop-color:#FF928E"/>
			</linearGradient>
			<path class="st50" d="M199.8,142c0,0.9-12.5,18.7-12.5,18.7s2.2,4.4,13,8l9.3-19.1L199.8,142z"/>
			<g>
				<linearGradient id="SVGID_41_" gradientUnits="userSpaceOnUse" x1="209.1319" y1="157.3833" x2="197.2094" y2="128.0603">
					<stop  offset="0" style="stop-color:#FEBBBA"/>
					<stop  offset="1" style="stop-color:#FF928E"/>
				</linearGradient>
				<path class="st51" d="M209.7,131.8c0,0,4.5,10.2,4.8,15.6c0.3,5.4,1.5,8.9-4.8,9.9c-6.2,1.1-11.4-2-14.3-7.4
					c0,0-4.4-8.2-3.4-11.6C193,135,209.7,131.8,209.7,131.8z"/>
				<linearGradient id="SVGID_42_" gradientUnits="userSpaceOnUse" x1="248.5794" y1="-22.8595" x2="213.8839" y2="87.7324">
					<stop  offset="0" style="stop-color:#09005D"/>
					<stop  offset="1" style="stop-color:#1A0F91"/>
				</linearGradient>
				<path class="st52" d="M197.5,146.1l0.4-0.2c0.5-0.2,0.6-0.7,0.4-1.2c-0.9-1.7-2.6-5.6-0.4-6.5c2.8-1.2,14.1-3.5,16.5-7.5
					c2.3-3.8,0.3-8.8-2.8-10.2c-0.2-0.1-0.5,0-0.6,0.2l-0.3,0.5c-0.2,0.3-0.7,0.3-0.8-0.1l0,0c-0.1-0.4-0.6-0.4-0.8-0.1
					c-0.7,1.2-2.8,3.1-8.2,4.1c-7.7,1.4-12.7,4.5-12.9,9.8c0,0.3-0.4,0.5-0.7,0.3c-0.6-0.3-1.5-0.5-2.7,0.5
					c-2.1,1.8-1.2,6.4,3.4,10.1c0.2,0.2,0.2,0.5,0,0.7c-0.8,0.5-2.1,1.8,1.1,3.6c3.3,1.8,5.8,1.6,6.8,1.5c0.2,0,0.4-0.3,0.3-0.5
					l-1-4.7c-0.1-0.3,0.1-0.5,0.4-0.5H197.5z"/>
				<linearGradient id="SVGID_43_" gradientUnits="userSpaceOnUse" x1="200.9573" y1="160.707" x2="189.0348" y2="131.3839">
					<stop  offset="0" style="stop-color:#FEBBBA"/>
					<stop  offset="1" style="stop-color:#FF928E"/>
				</linearGradient>
				<path class="st53" d="M197.7,147.1c0,0-1.7-6.5-4.6-4.7c-2.9,1.8,1.5,7.3,3.9,7.6L197.7,147.1z"/>
			</g>
			<g>
				<linearGradient id="SVGID_44_" gradientUnits="userSpaceOnUse" x1="189.7916" y1="212.257" x2="226.5259" y2="169.4003">
					<stop  offset="0" style="stop-color:#FF928E"/>
					<stop  offset="1" style="stop-color:#FE7062"/>
				</linearGradient>
				<path class="st54" d="M208.9,172.7l0.9,23.2c2.5,0.8,4.8,1.5,7,2c1.4-4.5,4.5-10,7-14.1C214.6,180.6,208.9,172.7,208.9,172.7z"
					/>
				<linearGradient id="SVGID_45_" gradientUnits="userSpaceOnUse" x1="271.6399" y1="170.3906" x2="216.9689" y2="197.5864">
					<stop  offset="0" style="stop-color:#FEBBBA"/>
					<stop  offset="1" style="stop-color:#FF928E"/>
				</linearGradient>
				<path class="st55" d="M254.9,172.3c-12.6,13.7-22.9,14.5-31.2,11.5c-2.5,4.1-5.6,9.6-7,14.1c33.8,7.4,41.7-23.6,41.7-23.6
					L254.9,172.3z"/>
				<linearGradient id="SVGID_46_" gradientUnits="userSpaceOnUse" x1="270.8396" y1="163.5698" x2="252.1392" y2="183.1013">
					<stop  offset="0" style="stop-color:#FEBBBA"/>
					<stop  offset="1" style="stop-color:#FF928E"/>
				</linearGradient>
				<path class="st56" d="M257.5,170.9c0,0,1.5-1.6,4.2-1.1c2.7,0.5,5.1,1.4,6.8,0c1.7-1.4,2.3,0.5,2.3,0.5l-5,3.8L257.5,170.9z"/>
				<linearGradient id="SVGID_47_" gradientUnits="userSpaceOnUse" x1="271.8998" y1="170.0683" x2="217.229" y2="197.264">
					<stop  offset="0" style="stop-color:#FEBBBA"/>
					<stop  offset="1" style="stop-color:#FF928E"/>
				</linearGradient>
				<path class="st57" d="M254.5,173.6c0,0,1-4.2,4-3.6c3,0.6,9.8,4.3,11.6,3.6c1.8-0.7,4-2.3,5.2-1.7l-2,2.5c0,0,5.2-3,6.1-1.2
					l-8.7,4.9C270.7,178.1,257.9,176.8,254.5,173.6z"/>
			</g>
			<linearGradient id="SVGID_48_" gradientUnits="userSpaceOnUse" x1="260.6051" y1="222.2443" x2="185.2031" y2="183.5766">
				<stop  offset="0" style="stop-color:#FEBBBA"/>
				<stop  offset="1" style="stop-color:#FF928E"/>
			</linearGradient>
			<path class="st58" d="M194.9,203.1c0,0,23.8,19.9,49.4,11.2c1.6-0.5,3.3-0.4,4.8,0.4l7.4,3.9c3.1,1.6,6.9,0.6,8.7-2.4
				c1-1.7,1.9-3.7,2.1-5.5l-14.4-5.8l1.1-1.8c0,0-7-0.6-8.9,4.5c0,0-13.4,5.6-36.1-19.3C209,188.1,198.7,196.8,194.9,203.1z"/>
			<linearGradient id="SVGID_49_" gradientUnits="userSpaceOnUse" x1="388.4407" y1="-45.552" x2="35.5974" y2="372.06">
				<stop  offset="0" style="stop-color:#E1473D"/>
				<stop  offset="1" style="stop-color:#E9605A"/>
			</linearGradient>
			<path class="st59" d="M193.6,202.9c-0.1,0-0.2,0-0.2-0.1c-10-6.8-14.7-17.7-14.8-17.8c-0.1-0.2,0-0.4,0.2-0.5
				c0.2-0.1,0.4,0,0.5,0.2c0,0.1,4.7,10.8,14.5,17.4c0.2,0.1,0.2,0.4,0.1,0.6C193.9,202.8,193.8,202.9,193.6,202.9z"/>
			<linearGradient id="SVGID_50_" gradientUnits="userSpaceOnUse" x1="385.7972" y1="-47.7849" x2="32.9539" y2="369.8271">
				<stop  offset="0" style="stop-color:#E1473D"/>
				<stop  offset="1" style="stop-color:#E9605A"/>
			</linearGradient>
			<path class="st60" d="M208.5,187.8c-0.1,0-0.3-0.1-0.3-0.2c0,0-3.1-4.8-8.9-15.2c-1.8-3.2-4.1-5.2-7-6c-4.7-1.3-9.3,1.2-9.3,1.2
				c-0.2,0.1-0.4,0-0.6-0.2c-0.1-0.2,0-0.4,0.2-0.6c0.2-0.1,4.9-2.7,9.9-1.3c3.1,0.9,5.6,3,7.5,6.4c5.8,10.4,8.9,15.1,8.9,15.2
				c0.1,0.2,0.1,0.4-0.1,0.6C208.7,187.7,208.6,187.8,208.5,187.8z"/>
		</g>
	</g>
</g>
</svg>
